<?xml version="1.0" encoding="utf-8"?>
<!-- Generator: Adobe Illustrator 26.5.0, SVG Export Plug-In . SVG Version: 6.00 Build 0)  -->
<svg version="1.1" xmlns="http://www.w3.org/2000/svg" xmlns:xlink="http://www.w3.org/1999/xlink" x="0px" y="0px"
	 viewBox="0 0 851 315" style="enable-background:new 0 0 851 315;" xml:space="preserve">
<style type="text/css">
	.st0{fill:#191919;}
	.st1{fill:none;stroke:#BA7830;stroke-width:4;stroke-miterlimit:10;}
	.st2{fill:#FFFFFF;}
	.st3{font-family:'Microsoft-Himalaya';}
	.st4{font-size:238.9212px;}
	.st5{font-size:67.2491px;}
	.st6{fill:none;stroke:#D5AB7D;stroke-miterlimit:10;}
	.st7{fill:#BA7830;}
</style>
<g id="Capa_3">
</g>
<g id="color">
</g>
<g id="Capa_1">
	<rect x="0" class="st0" width="851" height="315"/>
	<ellipse class="st1" cx="141.1" cy="159.9" rx="113.1" ry="113.2"/>
	<text transform="matrix(1 0 0 1 282.3809 197.6767)" class="st2 st3 st4">FinixDS</text>
	<g>
		<text transform="matrix(1 0 0 1 392.9356 248.9228)" class="st2 st3 st5">Graphic Design</text>
	</g>
	<g>
		<g>
			<g>
				<path class="st6" d="M62.6,265.3"/>
			</g>
		</g>
		<g>
			<g>
				<g>
					<path class="st7" d="M79.5,141.1c0.4,0.3-4.9,2.6-10.9,8.8c-1.5,1.6-2.9,3.4-3.9,5.5c-1.1,2.1-1.9,4.6-2,7.2
						c-0.3,5.3,2.2,10.9,6.2,15.8c0.7,0.8,1.5,1.7,2,2.2l-3.3,2.8c-1-1.5-1.8-2.9-2.5-4.5c-0.7-1.6-1.2-3.1-1.5-4.8
						c-0.2-1.7-0.2-3.5,0.2-5.2c0.4-1.7,1.6-3.3,2.8-4.3c1.2-1,2.6-1.8,3.9-2.2c0.3-0.1,0.7-0.2,1-0.3c0.3-0.1,0.7-0.1,1-0.2
						c0.3-0.1,0.7-0.1,1-0.2c0.3,0,0.7-0.1,0.9-0.1c1.2-0.2,2.5-0.2,3.6-0.3c1.1,0,2.2,0,3.3,0.1c4.2,0.2,7.4,0.8,9.7,1.2
						s3.5,0.8,3.5,0.8s-1.2,0-3.5-0.1c-2.2,0-5.5-0.1-9.5,0.1c-1,0-2,0.2-3.1,0.3c-1,0.2-2.1,0.3-3.3,0.7c-2.1,0.6-4.5,1.5-6.1,2.9
						c-1.6,1.5-2,3.7-1.5,6.2c0.6,2.5,1.9,5.2,3.5,7.4l-3.3,2.8c-0.8-0.8-1.6-1.7-2.4-2.6c-2.2-2.8-4-5.8-5.2-9
						c-0.6-1.6-1-3.3-1.2-4.9s-0.2-3.3,0-4.9c0.3-3.1,1.6-6.1,3-8.3c1.5-2.4,3.3-4.2,5.1-5.6C74.2,142.7,79.8,141.5,79.5,141.1z"/>
				</g>
			</g>
		</g>
		<g>
			<g>
				<g>
					<path class="st7" d="M219.5,142.4c0,0-1,0.3-2.7,0.9c-1.8,0.6-4.3,1.3-7.5,2.1c-3.3,0.7-7.2,1.3-11.8,0.9
						c-4.6-0.4-9.3-2.1-13.9-4.2c-2.2-1-4.5-2-6.5-2.8c-2.1-0.9-4.2-1.6-6.2-2.4c-3.9-1.3-7.6-2.4-10.8-3c-3.1-0.7-5.7-1.1-7.5-1.5
						c-1.8-0.2-2.8-0.4-2.8-0.4s0.2,0,0.8-0.1c0.4,0,1.2-0.1,2.1-0.2c1.8-0.1,4.5-0.2,7.9-0.1c3.3,0.2,7.2,0.7,11.6,1.7
						c2.1,0.6,4.4,1.1,6.6,1.9c2.2,0.8,4.6,1.8,6.8,2.8c4.5,2,8.6,3.8,12.7,4.5c4,0.8,7.7,0.7,11,0.6c3.3-0.2,5.8-0.4,7.6-0.7
						C218.5,142.6,219.5,142.4,219.5,142.4z"/>
				</g>
			</g>
		</g>
		<g>
			<g>
				<g>
					<path class="st7" d="M230.2,157.2c0,0-0.9,0.3-2.6,0.9c-1.7,0.6-4,1.6-7.1,2.7c-3,1.1-6.7,2.5-11.1,3c-2.2,0.2-4.6,0.3-7.2-0.1
						c-2.5-0.4-5.1-1.5-7.3-2.8c-2.2-1.3-4.2-2.9-6-4.4s-3.4-2.9-5.1-4.2c-3.3-2.5-6.5-4.5-9.2-6c-2.8-1.5-5.2-2.6-6.7-3.3
						c-0.8-0.3-1.5-0.6-1.9-0.8c-0.4-0.2-0.7-0.2-0.7-0.2s0.2,0,0.7,0.1s1.1,0.1,2,0.3c1.8,0.3,4.4,0.9,7.4,1.9
						c3.1,1,6.7,2.6,10.4,4.9c3.8,2.2,7.3,5.5,11.1,7.9c1.9,1.1,3.8,2,5.8,2.5c2,0.4,4,0.6,6.1,0.6c4-0.1,7.7-0.9,10.8-1.5
						c3.1-0.7,5.7-1.1,7.5-1.3C229.2,157.2,230.2,157.2,230.2,157.2z"/>
				</g>
			</g>
		</g>
		<g>
			<g>
				<g>
					<path class="st7" d="M228,176.1c0,0-0.1,0.1-0.4,0.2c-0.3,0.1-0.8,0.3-1.5,0.6c-1.2,0.4-3.1,0.9-5.5,1.2
						c-2.4,0.3-5.3,0.2-8.5-0.2c-3.1-0.6-6.6-1.6-9.9-3.4c-6.6-3.5-11.2-8.4-14-12.1c-1.5-1.9-2.5-3.5-3.1-4.6c-0.7-1.1-1-1.8-1-1.8
						s0.6,0.4,1.6,1.3c1,0.9,2.4,2.1,4.2,3.6c3.6,2.9,8.5,6.7,14.5,9.8c6,3.1,11.9,4.8,16.4,5.3c2.2,0.2,4.2,0.3,5.4,0.2
						c0.7,0,1.1,0,1.5-0.1C227.8,176.1,228,176.1,228,176.1z"/>
				</g>
			</g>
		</g>
		<g>
			<g>
				<g>
					<path class="st7" d="M182.2,166.4c0,0-0.4-0.4-1.3-1.3c-0.9-0.8-2.1-1.9-3.8-3.1c-3.4-2.5-8.3-5.2-14.3-7.2
						c-5.8-2.1-11.6-3.6-15.6-4.8c-4.2-1.1-6.6-2-6.6-2s2.7-0.2,7-0.1s10.3,0.6,16.7,2.9c6.4,2.4,11.5,6.3,14.3,9.8
						c1.5,1.7,2.4,3.3,2.9,4.4C182,165.7,182.2,166.4,182.2,166.4z"/>
				</g>
			</g>
		</g>
		<g>
			<g>
				<g>
					<path class="st7" d="M191.7,192.2c0,0-0.7-0.1-1.8-0.7c-1.1-0.4-2.7-1.5-4.2-3.1c-1.6-1.6-3-3.9-4.3-6.4
						c-1.2-2.6-2.5-5.2-3.9-7.7c-3-5.2-6.7-9.3-9.8-12c-1.5-1.3-2.8-2.5-3.8-3.1c-0.9-0.7-1.5-1.1-1.5-1.1s0.7,0.1,1.8,0.4
						c1.1,0.3,2.8,1,4.7,1.9c3.8,1.9,8.9,5.8,12.2,11.7c0.9,1.5,1.6,2.9,2.1,4.4c0.6,1.5,1,2.8,1.5,4.2c0.9,2.6,1.7,4.8,2.6,6.5
						c0.9,1.8,2,3,2.8,3.8C191.2,191.8,191.7,192.2,191.7,192.2z"/>
				</g>
			</g>
		</g>
		<g>
			<g>
				<g>
					<path class="st7" d="M212.3,185.4c0,0-0.1,0.1-0.3,0.2c-0.2,0.1-0.4,0.4-0.9,0.7c-0.8,0.6-2,1.2-3.7,1.6
						c-1.7,0.4-3.8,0.4-6.2,0.1c-2.2-0.4-4.7-1.5-7-3c-2.1-1.6-3.8-3.5-5.1-5.3c-1.2-1.8-2.1-3.6-2.8-5.1c-0.7-1.5-1.1-2.7-1.5-3.6
						c-0.3-0.9-0.4-1.3-0.4-1.3s0.3,0.3,1,1c0.7,0.7,1.6,1.6,2.7,2.8c2.2,2.4,5.2,5.5,8.6,8.1c3.5,2.6,7.3,4,10.3,4.3
						c1.5,0.1,2.8,0.1,3.6-0.1c0.4,0,0.8-0.1,1-0.2C212.2,185.6,212.3,185.4,212.3,185.4z"/>
				</g>
			</g>
		</g>
		<g>
			<g>
				<g>
					<path class="st7" d="M115.6,243.9c0,0-0.1-0.2-0.4-0.8c-0.3-0.4-0.7-1.2-1.1-2.4c-0.9-2-1.8-5.3-1.9-9.3c-0.2-4,0.3-8.9,1.3-14
						c1-5.2,2.4-10.7,3-16.4c0.3-2.8,0.4-5.6,0.2-8.3c-0.2-2.6-0.8-5.1-1.7-7.4c-1.7-4.7-4.2-8.5-6.5-11.5c-2.5-2.9-4.8-5.1-6.6-6.3
						c-0.9-0.7-1.6-1.1-2-1.5c-0.4-0.3-0.8-0.4-0.8-0.4s0.3,0.1,0.8,0.3c0.6,0.2,1.3,0.6,2.4,1c2,1,4.8,2.7,7.9,5.4
						c2.9,2.7,6.2,6.6,8.3,11.6c1.1,2.5,2,5.3,2.4,8.3c0.4,3,0.3,6.2,0,9.2c-0.8,6.2-2.5,11.8-3.8,16.7c-1.3,4.9-2.5,9.4-2.8,13.2
						c-0.3,3.8-0.1,7,0.3,9.1c0.2,1,0.4,1.9,0.7,2.5C115.6,243.6,115.6,243.9,115.6,243.9z"/>
				</g>
			</g>
		</g>
		<g>
			<g>
				<g>
					<path class="st7" d="M196.2,121c0,0-0.1,0.2-0.3,0.6c-0.2,0.3-0.6,0.8-1,1.5c-0.9,1.2-2.4,2.9-4.6,4.5
						c-2.2,1.6-5.5,2.9-9.2,3.4c-3.8,0.4-7.9,0-11.9-1.1c-4-1-7.6-2.5-10.9-3.5c-3.3-1.1-6.2-1.9-8.6-2.4c-2.5-0.4-4.6-0.4-6.1-0.3
						c-0.7,0.1-1.3,0.1-1.7,0.2c-0.3,0-0.6,0.1-0.6,0.1s0.2-0.1,0.6-0.2c0.3-0.2,0.9-0.4,1.6-0.7c1.5-0.6,3.6-1,6.4-1.1
						c2.7-0.1,6.1,0.2,9.5,0.9c3.5,0.8,7.2,1.8,11,2.8c3.8,1,7.3,1.7,10.6,1.7s6.2-0.7,8.4-1.7c2.4-1,4-2.2,5.2-3
						c0.6-0.4,1-0.8,1.3-1.1C196.1,121.1,196.2,121,196.2,121z"/>
				</g>
			</g>
		</g>
		<g>
			<g>
				<g>
					<path class="st7" d="M193.5,235.9c0,0-0.2-0.1-0.6-0.2c-0.2-0.1-0.4-0.1-0.8-0.2c-0.3-0.1-0.6-0.3-1-0.4
						c-1.5-0.8-3.5-2.1-5.3-4.6c-1.9-2.4-3.6-5.6-4.7-9.3c-1.2-3.8-1.8-8.1-2.2-12.4c-0.3-4.4-0.6-8.5-0.8-12.1
						c-0.2-3.7-0.7-7-1.2-9.7c-0.6-2.7-1.3-4.8-2-6.3c-0.7-1.5-1-2.2-1-2.2s0.6,0.7,1.7,1.9c1,1.3,2.4,3.3,3.5,6.1
						c1.1,2.7,2.1,6.1,2.8,9.9c0.7,3.8,1.1,8,1.5,12.2c0.3,4.3,0.7,8.3,1.5,11.8c0.7,3.6,1.8,6.6,3,9.1c1.2,2.5,2.7,4.2,3.9,5.2
						c0.3,0.2,0.6,0.4,0.8,0.7c0.2,0.2,0.4,0.3,0.7,0.4C193.4,235.7,193.5,235.9,193.5,235.9z"/>
				</g>
			</g>
		</g>
		<g>
			<g>
				<g>
					<path class="st7" d="M175.7,189.8c0,0-0.7-0.1-1.8-0.7c-1.1-0.4-2.7-1.5-4.2-3.1c-1.6-1.6-3-3.9-4.3-6.4
						c-1.2-2.6-2.5-5.2-3.9-7.7c-3-5.2-6.7-9.3-9.8-12c-1.5-1.3-2.8-2.5-3.8-3.1c-0.9-0.7-1.5-1.1-1.5-1.1s0.7,0.1,1.8,0.4
						c1.1,0.3,2.8,1,4.7,1.9c3.8,1.9,8.9,5.8,12.2,11.7c0.9,1.5,1.6,2.9,2.1,4.4c0.6,1.5,1,2.8,1.5,4.2c0.9,2.6,1.7,4.8,2.6,6.5
						c0.9,1.8,2,3,2.8,3.8C175.1,189.4,175.7,189.8,175.7,189.8z"/>
				</g>
			</g>
		</g>
		<g>
			<g>
				<g>
					<path class="st7" d="M143.1,84.5c0,0-0.2,1-0.8,2.7c-0.6,1.8-1.2,4.3-2.5,7.4c-1.2,3-3,6.7-6,10.2c-2.9,3.6-7.1,6.5-11.2,9.1
						c-2.1,1.3-4.2,2.6-6.1,3.8c-1.9,1.2-3.7,2.5-5.4,3.8c-3.4,2.5-6.3,5.1-8.6,7.2c-2.4,2.2-4.2,4-5.4,5.4
						c-1.2,1.3-1.9,2.1-1.9,2.1s0.1-0.2,0.3-0.7c0.2-0.4,0.6-1,1-1.8c0.9-1.6,2.4-3.8,4.4-6.5c2-2.6,4.6-5.6,7.9-8.5
						c1.7-1.5,3.4-2.9,5.4-4.4c1.9-1.5,4-2.7,6.2-4c4.2-2.6,8-5.1,10.9-7.9c2.9-2.9,5.1-6.1,6.7-8.8s2.9-5.1,3.8-6.6
						C142.6,85.4,143.1,84.5,143.1,84.5z"/>
				</g>
			</g>
		</g>
		<g>
			<g>
				<g>
					<path class="st7" d="M173,66.3c0,0-0.4,1.2-1.1,3.4c-0.7,2.2-1.6,5.4-2.8,9.4c-1.2,3.9-2.6,8.8-5.2,13.8
						c-1.2,2.5-2.8,5.1-4.8,7.5c-2,2.5-4.5,4.7-7.4,6.4c-2.8,1.8-5.8,3-8.5,4.2c-2.8,1.1-5.4,2.1-7.7,3.3c-4.8,2.2-9.1,4.6-12.5,6.8
						c-3.5,2.2-6.1,4.2-8,5.6c-0.9,0.7-1.6,1.2-2.1,1.7c-0.4,0.3-0.7,0.6-0.7,0.6s0.2-0.2,0.6-0.7c0.3-0.4,1-1.1,1.8-2
						c1.6-1.7,3.9-4.2,7.1-6.8c3.1-2.7,7.2-5.7,12.1-8.4c4.9-2.8,10.7-4.7,15.7-7.7c5.1-3,8.5-7.5,11.3-12c2.7-4.5,4.6-9,6.3-12.8
						c1.7-3.8,3-6.8,4.2-8.9C172.3,67.4,173,66.3,173,66.3z"/>
				</g>
			</g>
		</g>
		<g>
			<g>
				<g>
					<path class="st7" d="M103.9,103.5c0,0,0.1,0.1,0.2,0.3c0.1,0.2,0.4,0.6,0.7,1.1c0.6,1,1.3,2.5,1.9,4.6c0.4,2.1,0.6,4.9-0.6,7.9
						c-0.6,1.5-1.5,2.8-2.5,4c-1,1.2-2.2,2.4-3.6,3.3c-2.6,1.9-5.3,3.4-7.4,4.6c-2.2,1.3-4.2,2.6-5.5,3.8c-1.5,1.2-2.4,2.6-2.9,3.6
						c-0.2,0.4-0.4,0.9-0.6,1.1s-0.2,0.4-0.2,0.4s0-0.1,0-0.4s0-0.8,0.1-1.3c0.2-1.1,0.7-2.9,1.8-4.7c1.1-1.8,2.9-3.7,5.2-5.5
						c2.1-1.8,4.6-3.4,7-5.1c2.4-1.7,4.3-3.5,5.4-5.5c1.2-1.9,1.7-4.2,1.8-6c0.1-1.9-0.1-3.5-0.3-4.6c-0.1-0.6-0.2-1-0.2-1.2
						C103.9,103.6,103.9,103.5,103.9,103.5z"/>
				</g>
			</g>
		</g>
		<g>
			<g>
				<g>
					<path class="st7" d="M184.7,104.8c0,0-0.6,0.7-1.7,1.8c-1.1,1.1-2.7,2.8-4.9,4.7c-2.2,1.9-5.1,3.9-8.9,5.3
						c-3.8,1.3-8.3,1.7-12.7,1.5c-4.4-0.1-8.3-0.4-11.8,0c-3.5,0.3-6.6,1.2-9.2,2.2c-2.6,1-4.5,2.1-5.8,2.9c-0.7,0.4-1.2,0.8-1.6,1
						c-0.3,0.2-0.6,0.3-0.6,0.3s0.1-0.2,0.4-0.4c0.2-0.3,0.7-0.8,1.2-1.3c1.1-1.1,2.8-2.8,5.3-4.4c2.5-1.6,5.7-3.1,9.5-3.9
						c3.9-0.9,8.2-0.8,12.5-0.7c4.3,0.1,8.1,0.1,11.5-0.7c3.4-0.8,6.3-2.2,8.8-3.6s4.4-2.6,5.7-3.5
						C184,105.3,184.7,104.8,184.7,104.8z"/>
				</g>
			</g>
		</g>
	</g>
</g>
<g id="LINEA_FENIX">
</g>
</svg>
