<?xml version="1.0" encoding="utf-8"?>
<!-- Generator: Adobe Illustrator 26.5.0, SVG Export Plug-In . SVG Version: 6.00 Build 0)  -->
<svg version="1.1" xmlns="http://www.w3.org/2000/svg" xmlns:xlink="http://www.w3.org/1999/xlink" x="0px" y="0px"
	 viewBox="0 0 1776 444" style="enable-background:new 0 0 1776 444;" xml:space="preserve">
<style type="text/css">
	.st0{fill:#191919;}
	.st1{fill:none;stroke:#BA7830;stroke-width:4;stroke-miterlimit:10;}
	.st2{enable-background:new    ;}
	.st3{fill:#FFFFFF;}
	.st4{fill:none;stroke:#D5AB7D;stroke-miterlimit:10;}
	.st5{fill:#BA7830;}
</style>
<g id="Capa_3">
</g>
<g id="color">
</g>
<g id="Capa_1">
	<rect class="st0" width="1776" height="444"/>
	<ellipse class="st1" cx="399.8" cy="224.6" rx="182.7" ry="182.9"/>
	<g class="st2">
		<path class="st3" d="M681.1,123.8v67.3h31.1c3.6,0,6.8-0.3,9.3-1c2.6-0.7,4.7-1.9,6.5-3.7c1.8-1.8,3.1-4.1,4.1-7.2
			c1-3,1.8-6.8,2.5-11.5h4.7v57.9h-4.7c-0.1-4.3-0.6-7.9-1.3-10.9c-0.8-3-2-5.5-3.7-7.4c-1.7-1.9-4-3.4-6.8-4.2
			c-2.8-0.9-6.4-1.3-10.6-1.3h-31.1v53.7c0,4,0.1,7.3,0.2,9.8c0.1,2.5,0.4,4.6,0.9,6.2c0.5,1.6,1.2,2.9,2.2,3.9
			c0.9,0.9,2.2,1.9,3.7,2.7c3.5,2,7.4,3,11.5,3h6.2v4.7h-73.5V281h6c3,0,5.7-0.2,8-0.7c2.3-0.4,4.2-1.5,5.7-3.2
			c1.5-1.7,2.7-4.3,3.5-7.7c0.8-3.5,1.2-8.1,1.2-14V144.7c0-3.9-0.1-7.1-0.3-9.7c-0.2-2.6-0.5-4.7-0.9-6.3c-0.4-1.6-1.1-3-2-4
			c-0.9-1-2.1-1.9-3.6-2.6c-1.9-1-3.8-1.8-5.7-2.3c-1.9-0.5-3.9-0.8-6-0.8h-6v-4.7h127.4v37.7h-2.8c-1.6-6.2-3.5-11.1-5.6-14.8
			c-2.1-3.7-4.6-6.6-7.5-8.6c-3-2-6.4-3.3-10.5-4c-4-0.6-8.9-0.9-14.5-0.9H681.1z"/>
		<path class="st3" d="M820,166.6v92.9c0,5.5,0.3,9.8,0.9,12.7c0.6,3,1.7,5.1,3.1,6.4c1.4,1.3,3.3,2.1,5.5,2.3
			c2.2,0.2,4.9,0.3,8,0.3v4.5h-56.2v-4.5c3.9,0,7-0.3,9.3-0.8c2.3-0.6,4.1-1.7,5.4-3.3c1.3-1.6,2-3.9,2.4-6.7
			c0.3-2.8,0.5-6.4,0.5-10.8V215c0-7.3-0.1-13.1-0.4-17.3c-0.3-4.3-0.7-7.4-1.3-9.5c-0.6-2.1-1.5-3.4-2.7-4
			c-1.2-0.6-2.7-0.8-4.6-0.8c-1.3,0-2.5,0.2-3.9,0.5c-1.3,0.3-2.9,0.8-4.6,1.4l-1.9-4.5l34.9-14.1H820z M809.4,106.1
			c3.6,0,6.7,1.2,9.1,3.7c2.5,2.5,3.7,5.5,3.7,9.1c0,3.5-1.2,6.5-3.7,9c-2.5,2.5-5.5,3.8-9.1,3.8c-3.6,0-6.7-1.3-9.1-3.8
			c-2.5-2.5-3.7-5.5-3.7-9c0-3.6,1.2-6.7,3.7-9.1C802.7,107.3,805.8,106.1,809.4,106.1z"/>
		<path class="st3" d="M885.6,191.1c13.4-16.3,26.3-24.5,38.6-24.5c4.3,0,8.2,0.7,11.9,2.2c3.6,1.4,6.8,3.8,9.5,7.2
			c2.7,3.3,4.8,7.8,6.3,13.4c1.5,5.6,2.3,12.5,2.3,20.8v49.4c0,5,0.3,9,0.8,11.9c0.6,2.9,1.5,5.1,2.8,6.5c1.3,1.4,3.1,2.4,5.4,2.7
			c2.3,0.4,5.2,0.6,8.7,0.6v4.5h-57.1v-4.5h2.3c3.8,0,6.8-0.3,9-1c2.2-0.7,3.8-1.9,4.9-3.5c1.1-1.6,1.8-3.9,2.1-6.7
			c0.3-2.8,0.5-6.3,0.5-10.5v-47.3c0-10.7-1.4-18.3-4.1-23c-2.7-4.6-7.3-7-13.9-7c-10.2,0-20.2,5.5-30,16.4v60.9
			c0,4.9,0.2,8.8,0.5,11.6c0.3,2.8,1.1,5,2.4,6.5c1.3,1.5,3.1,2.5,5.7,2.9c2.5,0.4,6,0.7,10.4,0.7v4.5h-57.3v-4.5h2.5
			c3,0,5.5-0.3,7.4-1c1.9-0.7,3.5-1.9,4.6-3.5c1.1-1.6,1.9-3.9,2.4-6.7c0.4-2.8,0.7-6.3,0.7-10.5v-42.8c0-8.3-0.1-14.7-0.4-19.2
			c-0.3-4.5-0.7-7.8-1.4-9.9c-0.7-2.1-1.6-3.3-2.8-3.7c-1.2-0.4-2.7-0.6-4.4-0.6c-1.3,0-2.5,0.2-3.9,0.5c-1.3,0.3-2.9,0.8-4.6,1.4
			l-1.9-4.5l34.9-14.1h5.5V191.1z"/>
		<path class="st3" d="M1021.1,166.6v92.9c0,5.5,0.3,9.8,0.9,12.7c0.6,3,1.7,5.1,3.1,6.4c1.4,1.3,3.3,2.1,5.5,2.3
			c2.2,0.2,4.9,0.3,8,0.3v4.5h-56.2v-4.5c3.9,0,7-0.3,9.3-0.8c2.3-0.6,4.1-1.7,5.4-3.3c1.3-1.6,2-3.9,2.4-6.7
			c0.3-2.8,0.5-6.4,0.5-10.8V215c0-7.3-0.1-13.1-0.4-17.3c-0.3-4.3-0.7-7.4-1.3-9.5c-0.6-2.1-1.5-3.4-2.7-4
			c-1.2-0.6-2.7-0.8-4.6-0.8c-1.3,0-2.5,0.2-3.9,0.5c-1.3,0.3-2.9,0.8-4.6,1.4l-1.9-4.5l34.9-14.1H1021.1z M1010.6,106.1
			c3.6,0,6.7,1.2,9.1,3.7c2.5,2.5,3.7,5.5,3.7,9.1c0,3.5-1.2,6.5-3.7,9c-2.5,2.5-5.5,3.8-9.1,3.8c-3.6,0-6.7-1.3-9.1-3.8
			c-2.5-2.5-3.7-5.5-3.7-9c0-3.6,1.2-6.7,3.7-9.1C1003.9,107.3,1006.9,106.1,1010.6,106.1z"/>
		<path class="st3" d="M1048.3,170h54.5v4.7c-3.5,0-6,0.6-7.4,1.7c-1.4,1.1-2.1,2.7-2.1,4.7c0,1.8,0.7,3.7,2.2,5.7
			c1.4,2.1,3.6,5.4,6.5,9.9l8.1,13.2l9.6-13.2c6-8.3,9-13.5,9-15.6c0-1.8-0.7-3.3-2.1-4.5c-1.4-1.3-3.7-1.9-7-1.9V170h39v4.7
			c-2.5,0.1-4.7,0.6-6.7,1.3c-2,0.8-3.9,1.9-5.9,3.6c-2,1.6-4.2,3.8-6.6,6.6c-2.4,2.8-5.2,6.3-8.3,10.6l-15.8,21.1l28.8,41.5
			c3.6,5.3,6.6,9.3,9,12.2c2.3,2.8,4.4,5,6.1,6.4c1.8,1.4,3.5,2.3,5.3,2.6c1.8,0.3,3.9,0.5,6.4,0.7v4.5h-54.5v-4.5
			c3.1,0,5.8-0.6,8-1.9c2.2-1.3,3.3-3,3.3-5.3c-0.3-2-3-6.9-8.1-14.7l-17-24.7l-18.7,24.7c-2.9,3.9-5,7-6.4,9.2
			c-1.4,2.3-2.1,3.7-2.1,4.3c0,2.1,0.9,4,2.8,5.6c1.9,1.6,4.7,2.5,8.5,2.7v4.5h-37.7v-4.5c1.8-0.3,3.4-0.7,4.8-1.2
			c1.4-0.6,3-1.6,4.8-3.2c1.8-1.6,3.8-3.7,6-6.5c2.3-2.8,5.1-6.4,8.5-10.9l24.1-32.2l-21.9-31.9c-3.3-4.6-6-8.3-8.3-11
			c-2.3-2.7-4.4-4.7-6.4-6.1c-2-1.4-4-2.3-5.9-2.7c-1.9-0.4-4.2-0.7-6.7-0.7V170z"/>
		<path class="st3" d="M1178.5,285.7V281h6.6c2.9,0,5.5-0.2,7.7-0.8c2.3-0.5,4.1-1.6,5.7-3.4c1.5-1.8,2.7-4.3,3.5-7.7
			c0.8-3.4,1.2-8,1.2-13.8V144.7c0-10.6-1.2-17.2-3.6-20c-3.3-3.8-8.1-5.7-14.5-5.7h-6.6v-4.7h69.7c25.4,0,44.9,3,58.4,8.9
			c13.4,5.9,24.2,15.6,32.2,29c8.2,13.7,12.3,29.3,12.3,46.9c0,12.7-2,24.3-6.1,34.9c-4.1,10.6-10.2,19.7-18.3,27.3
			c-8.1,7.7-18.1,13.6-30.1,17.9c-11.9,4.3-25.8,6.4-41.7,6.4H1178.5z M1227.5,273.3c10.4,2.4,19.3,3.6,26.8,3.6
			c9.7,0,18.7-1.8,27-5.4c8.3-3.6,15.5-8.7,21.6-15.3c6.1-6.6,10.9-14.6,14.3-24c3.5-9.4,5.2-20,5.2-31.7c0-11.8-1.7-22.5-5.1-31.9
			c-3.4-9.5-8.2-17.5-14.3-24.1c-6.2-6.6-13.4-11.7-21.9-15.2c-8.4-3.5-17.7-5.3-27.7-5.3c-7.4,0-16,1.3-25.8,3.8V273.3z"/>
		<path class="st3" d="M1479.5,110.6v59.2h-4.7c-2.1-16-7.3-28.1-15.6-36.6c-8.3-8.4-18.8-12.6-31.7-12.6c-4.4,0-8.4,0.8-12.1,2.3
			c-3.6,1.5-6.9,3.5-9.6,5.9c-2.8,2.5-4.9,5.2-6.4,8.4c-1.5,3.1-2.3,6.4-2.3,9.8c0,3.1,0.6,6.1,1.9,9c1.3,2.8,5.2,7.3,11.7,13.3
			c10.9,6.9,20.7,12.6,29.2,17.2c8,4.4,18.9,11.1,32.6,20c5.9,4.5,10.4,9.9,13.6,16.1c3.1,6.2,4.7,12.7,4.7,19.5
			c0,6.4-1.3,12.5-4,18.3c-2.6,5.8-6.3,10.8-11,15.2c-4.7,4.3-10.4,7.8-17.1,10.4c-6.7,2.6-13.9,3.9-21.9,3.9c-5,0-9.7-0.4-13.9-1.1
			c-0.8-0.1-2.7-0.7-5.9-1.6c-3.2-0.9-6.6-1.9-10.3-2.9c-3.6-1-7-1.9-10.2-2.8c-3.1-0.9-5-1.3-5.5-1.3c-2.1,0-3.8,0.6-5,1.9
			c-1.2,1.3-2.1,3.9-2.7,7.9h-4.7v-58.8h4.7c2.3,12.1,5.2,21.3,8.9,27.7c1.8,3,4.1,5.8,7.1,8.4c3,2.6,6.3,4.8,10,6.8
			c3.7,2,7.7,3.5,12,4.5c4.3,1.1,8.6,1.6,13,1.6c5.3,0,10-0.8,14.2-2.3c4.2-1.5,7.8-3.5,10.7-6.1c3-2.6,5.2-5.6,6.8-9
			c1.6-3.4,2.4-7,2.4-10.7c0-4.3-1.2-8.5-3.5-12.8c-2.3-4.3-6.3-8.5-11.8-12.6c-5.4-3.3-11.8-7.1-19.2-11.5
			c-14.2-8.2-26.8-16-37.9-23.6c-6.2-4.9-10.8-10.3-14-16.1c-3.2-5.8-4.8-12.3-4.8-19.5c0-6,1.3-11.8,3.8-17.2
			c2.5-5.5,6-10.3,10.5-14.4c4.5-4.1,9.8-7.4,15.9-9.8c6.2-2.4,12.8-3.6,20-3.6c9,0,18.7,2.2,28.8,6.6c2.4,1,4.4,1.8,6,2.5
			c1.6,0.6,3,0.9,4,0.8c2.3,0,4.1-0.6,5.5-1.9c1.4-1.3,2.4-3.9,3.2-7.9H1479.5z"/>
	</g>
	<g>
		<g>
			<path class="st3" d="M851.4,319.2l1.3,15.2h-1.3c-1.5-4.5-3.5-7.7-6.2-9.7c-2.7-2-5.9-3-9.7-3c-2.8,0-5.4,0.6-7.6,1.7
				c-2.2,1.1-4.1,2.7-5.7,4.6c-1.6,2-2.7,4.3-3.6,6.9c-0.8,2.7-1.2,5.6-1.2,8.7c0,4.6,0.9,8.8,2.7,12.6c0.9,1.9,1.9,3.6,3.1,4.9
				c1.2,1.4,2.5,2.5,3.8,3.4c1.4,0.9,2.8,1.6,4.3,2c1.5,0.4,3,0.6,4.5,0.6c3.5,0,6.9-0.9,10-2.7v-14c0-1.2,0-2.2-0.1-2.9
				c-0.1-0.8-0.2-1.4-0.4-1.8c-0.2-0.4-0.4-0.8-0.7-1c-0.3-0.2-0.6-0.5-1-0.7c-0.8-0.4-2.1-0.6-4-0.6v-1.4h18.7v1.4h-0.9
				c-0.8,0-1.5,0.1-2.1,0.3c-0.6,0.2-1,0.5-1.4,1c-0.4,0.5-0.6,1.2-0.8,2.1c-0.2,0.9-0.2,2.1-0.2,3.6v14.7c-1.4,0.7-2.7,1.4-4.1,1.9
				c-1.3,0.5-2.7,1-4,1.3c-2.8,0.7-5.7,1.1-8.9,1.1c-4,0-7.7-0.6-11-1.9c-3.3-1.2-6.1-3-8.4-5.1s-4.1-4.8-5.4-7.7
				c-1.3-3-1.9-6.2-1.9-9.7c0-4.2,1-8.3,3.1-12.2c2.4-4.6,5.7-8.2,9.9-10.7c3.5-2.1,7.7-3.1,12.5-3.1c1,0,1.8,0,2.5,0.1
				c0.7,0.1,1.5,0.2,2.3,0.3s1.7,0.4,2.6,0.7c0.9,0.3,2.1,0.7,3.4,1.2c1.3,0.5,2.2,0.8,2.7,0.7c0.4,0,0.8-0.2,1.1-0.6
				c0.3-0.4,0.5-1.2,0.6-2.4H851.4z"/>
			<path class="st3" d="M871.1,335v7.3c2.8-4.9,5.6-7.3,8.4-7.3c0.6,0,1.2,0.1,1.8,0.3c0.5,0.2,1,0.5,1.4,0.9c0.4,0.4,0.7,0.8,1,1.3
				c0.2,0.5,0.3,1,0.3,1.5c0,0.9-0.3,1.7-0.9,2.3c-0.6,0.6-1.4,1-2.2,1c-0.4,0-0.8-0.1-1.4-0.4c-0.5-0.2-1-0.5-1.5-0.8
				c-0.5-0.3-0.9-0.6-1.3-0.8c-0.4-0.2-0.7-0.4-0.9-0.4c-0.6,0-1.4,0.5-2.2,1.5c-0.8,1-1.7,2.3-2.5,3.9v15.7c0,1,0.1,1.8,0.2,2.6
				c0.1,0.8,0.4,1.4,0.8,2c0.4,0.5,1,1,1.7,1.3c0.8,0.3,1.8,0.5,3.1,0.5v1.3h-16.7v-1.3c1.1,0,1.9-0.1,2.6-0.2
				c0.7-0.1,1.2-0.4,1.6-0.8c0.4-0.4,0.7-1,0.8-1.8c0.1-0.8,0.2-1.8,0.2-3.2v-12.6c0-1.9,0-3.4-0.1-4.5c-0.1-1.1-0.1-1.8-0.2-2.2
				c-0.4-1.4-1.2-2.1-2.4-2.1c-0.4,0-0.8,0-1.2,0.1c-0.4,0.1-0.8,0.2-1.3,0.4l-0.3-1.3l9.8-4H871.1z"/>
			<path class="st3" d="M904.3,363.9c-1.7,1.3-3.1,2.3-4.1,3c-1,0.8-1.8,1.2-2.2,1.4c-1.3,0.6-2.7,0.9-4.1,0.9
				c-1.1,0-2.2-0.2-3.1-0.6c-0.9-0.4-1.8-1-2.4-1.7c-0.7-0.7-1.2-1.6-1.6-2.6c-0.4-1-0.6-2.2-0.6-3.4c0-1.5,0.3-2.8,0.9-4
				c0.6-1.2,1.5-2.2,2.7-3.2c1.2-1,2.8-1.9,4.7-2.7c3-1.4,6.3-2.8,9.8-4v-1.3c0-1.6-0.1-3-0.4-4.1c-0.3-1.1-0.7-2-1.2-2.6
				c-0.5-0.7-1.2-1.1-1.9-1.4c-0.7-0.3-1.6-0.4-2.5-0.4c-1.5,0-2.7,0.4-3.6,1.2c-0.9,0.8-1.3,1.7-1.3,2.8l0.1,2.1
				c0,1.1-0.3,1.9-0.8,2.5c-0.5,0.6-1.3,0.9-2.2,0.9c-0.9,0-1.6-0.3-2.2-0.9c-0.6-0.6-0.8-1.5-0.8-2.5c0-1,0.3-2,0.8-2.9
				c0.5-1,1.3-1.8,2.3-2.6c1-0.8,2.3-1.4,3.7-1.9c1.5-0.5,3.2-0.7,5.1-0.7c2.5,0,4.6,0.4,6.4,1.1c1.8,0.7,3,2,3.8,3.8
				c0.4,1,0.6,3.1,0.6,6.3v11c0,1.9,0,3.3,0.1,4.3c0.1,1,0.1,1.7,0.3,2.2c0.1,0.5,0.3,0.7,0.5,0.8c0.2,0.1,0.5,0.1,0.8,0.1
				c0.2,0,0.5,0,0.7-0.1c0.2-0.1,0.5-0.2,0.7-0.4c0.3-0.2,0.6-0.5,1-0.9c0.4-0.4,0.9-0.9,1.5-1.5v2c-2.7,3.5-5.2,5.3-7.6,5.3
				c-1.1,0-2.1-0.4-2.8-1.2S904.3,365.8,904.3,363.9z M904.3,361.5v-12.4c-2.5,1-5.3,2.3-8.5,3.8c-1.2,0.6-2.1,1.5-2.7,2.5
				c-0.7,1.1-1,2.3-1,3.7c0,0.8,0.1,1.6,0.4,2.4c0.3,0.7,0.7,1.4,1.1,1.9c0.5,0.5,1,0.9,1.6,1.2c0.6,0.3,1.3,0.4,1.9,0.4
				C899,365.1,901.4,363.9,904.3,361.5z"/>
			<path class="st3" d="M915.8,339.2l10-4h1.3v7.6c1.7-2.9,3.4-4.9,5.1-6c1.7-1.1,3.5-1.7,5.3-1.7c1.8,0,3.5,0.4,5,1.3
				c1.5,0.8,2.8,2,3.8,3.5c1.1,1.5,1.9,3.2,2.5,5.1c0.6,1.9,0.9,4,0.9,6.2c0,2.5-0.3,4.8-1,7.1c-0.7,2.2-1.7,4.2-3,5.9
				c-1.3,1.7-2.9,3-4.7,4c-1.8,1-3.9,1.5-6.2,1.5c-0.8,0-1.5,0-2.2-0.1c-0.7-0.1-1.3-0.2-1.9-0.4c-0.6-0.2-1.2-0.5-1.8-0.9
				c-0.6-0.4-1.2-0.9-1.9-1.5v9.9c0,1.2,0,2.1,0.1,2.8c0.1,0.7,0.2,1.2,0.3,1.6c0.1,0.4,0.3,0.7,0.6,0.8c0.2,0.2,0.5,0.4,0.8,0.5
				c0.7,0.4,1.9,0.5,3.7,0.5v1.3h-17.1v-1.3h0.9c0.8,0,1.5,0,2.1-0.1c0.6-0.1,1.1-0.3,1.5-0.7c0.4-0.4,0.7-1.1,0.9-1.9
				c0.2-0.9,0.3-2.1,0.3-3.7v-30.8c0-1.2,0-2.2-0.1-3c-0.1-0.8-0.2-1.3-0.5-1.8c-0.2-0.4-0.5-0.7-0.9-0.8c-0.4-0.1-0.8-0.2-1.4-0.2
				c-0.3,0-0.6,0-1,0.1c-0.4,0.1-0.8,0.2-1.2,0.4L915.8,339.2z M927.2,344.9V357c0,2.6,0.1,4.4,0.3,5.2c0.1,0.7,0.4,1.4,0.8,2
				c0.4,0.6,1,1.2,1.6,1.6s1.4,0.9,2.2,1.1c0.8,0.3,1.7,0.4,2.7,0.4c1.4,0,2.6-0.3,3.7-1c1.1-0.7,2-1.6,2.7-2.7
				c0.7-1.1,1.3-2.5,1.7-4.1c0.4-1.6,0.6-3.3,0.6-5.2c0-2.1-0.2-3.9-0.6-5.7c-0.4-1.7-1-3.2-1.8-4.5c-0.8-1.3-1.7-2.3-2.8-3
				c-1.1-0.7-2.3-1.1-3.6-1.1c-0.5,0-1,0-1.5,0.1c-0.5,0.1-1,0.2-1.5,0.5c-0.5,0.3-1.2,0.8-1.9,1.4
				C929.2,342.8,928.3,343.7,927.2,344.9z"/>
			<path class="st3" d="M964.1,318v23.8c1.3-1.5,2.5-2.7,3.5-3.6c1-0.9,1.9-1.6,2.8-2c0.8-0.5,1.6-0.8,2.3-1
				c0.7-0.2,1.5-0.2,2.3-0.2c1.8,0,3.4,0.5,4.7,1.5c1.3,1,2.3,2.6,3,4.8c0.4,1.6,0.6,4.3,0.6,8.3v11.5c0,1.1,0,2,0.1,2.8
				c0.1,0.8,0.2,1.4,0.5,1.9c0.3,0.5,0.8,0.9,1.4,1.1c0.7,0.2,1.6,0.3,2.8,0.3v1.3h-16v-1.3h0.7c1.1,0,1.9-0.1,2.5-0.3
				c0.6-0.2,1.1-0.5,1.4-1c0.3-0.5,0.5-1.1,0.6-1.9c0.1-0.8,0.1-1.8,0.1-2.9v-11.5c0-2.2-0.1-3.9-0.3-5.3s-0.5-2.4-0.9-3.2
				c-0.4-0.8-0.9-1.3-1.6-1.5c-0.7-0.3-1.5-0.4-2.4-0.4c-0.6,0-1.2,0.1-1.8,0.2c-0.6,0.1-1.2,0.4-1.9,0.7c-0.7,0.4-1.3,0.8-2.1,1.4
				c-0.7,0.6-1.5,1.4-2.4,2.3v17.2c0,1.2,0,2.1,0.1,2.7c0.1,0.6,0.1,1.1,0.3,1.5c0.1,0.4,0.3,0.6,0.5,0.8c0.2,0.2,0.5,0.3,0.9,0.6
				c0.7,0.4,1.8,0.5,3.5,0.5v1.3h-16.1v-1.3c0.9,0,1.6-0.1,2.3-0.2s1.2-0.4,1.6-0.8c0.4-0.4,0.7-1,0.9-1.8c0.2-0.8,0.3-1.9,0.3-3.3
				v-29.4c0-2.3,0-4-0.1-5.2c-0.1-1.2-0.2-2.1-0.4-2.7c-0.2-0.6-0.5-0.9-0.8-1c-0.3-0.1-0.7-0.2-1.2-0.2c-0.6,0-1.4,0.2-2.4,0.6
				l-0.5-1.3l9.7-4H964.1z"/>
			<path class="st3" d="M1002.2,335v26.2c0,1.6,0.1,2.8,0.3,3.6c0.2,0.8,0.5,1.4,0.9,1.8c0.4,0.4,0.9,0.6,1.5,0.6
				c0.6,0.1,1.4,0.1,2.3,0.1v1.3h-15.8v-1.3c1.1,0,2-0.1,2.6-0.2c0.7-0.2,1.2-0.5,1.5-0.9c0.4-0.5,0.6-1.1,0.7-1.9
				c0.1-0.8,0.1-1.8,0.1-3.1v-12.5c0-2.1,0-3.7-0.1-4.9c-0.1-1.2-0.2-2.1-0.4-2.7s-0.4-1-0.8-1.1c-0.3-0.2-0.8-0.2-1.3-0.2
				c-0.4,0-0.7,0-1.1,0.1c-0.4,0.1-0.8,0.2-1.3,0.4l-0.5-1.3l9.8-4H1002.2z M999.2,318c1,0,1.9,0.3,2.6,1c0.7,0.7,1,1.5,1,2.6
				c0,1-0.3,1.8-1,2.5c-0.7,0.7-1.5,1.1-2.6,1.1c-1,0-1.9-0.4-2.6-1.1c-0.7-0.7-1-1.6-1-2.5c0-1,0.3-1.9,1-2.6
				C997.3,318.3,998.2,318,999.2,318z"/>
			<path class="st3" d="M1038.8,356.2c-0.4,2.2-1.1,4.1-2,5.7c-0.9,1.7-2,3.1-3.2,4.2c-1.2,1.1-2.6,2-4,2.6s-2.9,0.9-4.5,0.9
				c-1.8,0-3.5-0.4-5.2-1.2c-1.7-0.8-3.1-2-4.4-3.4c-1.3-1.5-2.3-3.3-3-5.4c-0.8-2.1-1.1-4.5-1.1-7.2c0-2.5,0.4-4.9,1.2-7
				c0.8-2.1,2-3.9,3.4-5.5c1.4-1.5,3.1-2.7,4.9-3.6c1.9-0.8,3.9-1.3,6-1.3c1.6,0,3.1,0.2,4.4,0.7c1.3,0.5,2.5,1.1,3.5,1.9
				c1,0.8,1.8,1.6,2.3,2.5c0.5,0.9,0.8,1.8,0.8,2.7c0,0.9-0.3,1.7-0.9,2.2c-0.6,0.5-1.4,0.8-2.5,0.8c-1.1,0-2-0.3-2.7-0.8
				c-0.7-0.5-1.1-1.7-1.3-3.4c-0.3-2.8-1.9-4.2-4.8-4.2c-1.4,0-2.7,0.3-3.7,1c-1.1,0.6-2,1.5-2.7,2.6c-0.7,1.1-1.3,2.3-1.6,3.8
				c-0.4,1.4-0.6,2.9-0.6,4.5c0,1.9,0.2,3.7,0.7,5.5c0.5,1.8,1.2,3.3,2.1,4.7c0.9,1.4,2,2.5,3.3,3.3c1.3,0.8,2.8,1.2,4.5,1.2
				c1,0,1.9-0.1,2.8-0.4c0.9-0.2,1.8-0.7,2.6-1.3c0.8-0.6,1.6-1.5,2.4-2.5c0.8-1.1,1.5-2.4,2.3-4.1L1038.8,356.2z"/>
			<path class="st3" d="M1060.6,368.5v-1.3h1.9c0.8,0,1.5-0.1,2.2-0.2c0.6-0.1,1.2-0.5,1.6-1c0.4-0.5,0.8-1.2,1-2.2
				c0.2-1,0.3-2.2,0.3-3.9v-31.1c0-3-0.3-4.8-1-5.6c-0.9-1.1-2.3-1.6-4.1-1.6h-1.9v-1.3h19.6c7.1,0,12.6,0.8,16.4,2.5
				c3.8,1.7,6.8,4.4,9.1,8.2c2.3,3.9,3.4,8.3,3.4,13.2c0,3.6-0.6,6.8-1.7,9.8c-1.1,3-2.9,5.5-5.1,7.7c-2.3,2.2-5.1,3.8-8.5,5
				c-3.4,1.2-7.3,1.8-11.7,1.8H1060.6z M1074.4,365c2.9,0.7,5.4,1,7.5,1c2.7,0,5.3-0.5,7.6-1.5c2.3-1,4.4-2.4,6.1-4.3
				c1.7-1.9,3.1-4.1,4-6.8c1-2.7,1.5-5.6,1.5-8.9c0-3.3-0.5-6.3-1.4-9c-1-2.7-2.3-4.9-4-6.8c-1.7-1.9-3.8-3.3-6.2-4.3
				c-2.4-1-5-1.5-7.8-1.5c-2.1,0-4.5,0.4-7.3,1.1V365z"/>
			<path class="st3" d="M1119.7,348.2c0,2.4,0.3,4.6,1,6.5c0.7,1.9,1.5,3.5,2.6,4.9c1.1,1.3,2.3,2.4,3.8,3.1
				c1.4,0.7,2.9,1.1,4.5,1.1c2.1,0,4-0.6,5.5-1.8c1.6-1.2,2.9-3.2,4-6l1.1,0.7c-0.2,1.6-0.7,3.2-1.5,4.7c-0.7,1.5-1.7,2.9-2.8,4.1
				c-1.1,1.2-2.5,2.2-4,2.9c-1.5,0.7-3.2,1.1-5,1.1c-1.9,0-3.8-0.4-5.5-1.2c-1.7-0.8-3.2-1.9-4.5-3.4c-1.3-1.5-2.3-3.2-3.1-5.3
				c-0.8-2.1-1.1-4.4-1.1-7c0-2.8,0.4-5.3,1.2-7.5c0.8-2.2,1.8-4,3.2-5.6c1.3-1.5,2.9-2.7,4.7-3.4c1.8-0.8,3.8-1.2,5.9-1.2
				c1.8,0,3.5,0.3,5,0.9c1.5,0.6,2.8,1.5,4,2.7c1.1,1.2,2,2.5,2.6,4.2c0.6,1.6,1,3.4,1,5.5H1119.7z M1119.7,346.2h15.1
				c-0.2-3-0.9-5.2-2.1-6.6c-1.3-1.4-2.9-2.1-4.9-2.1c-1,0-1.9,0.2-2.8,0.6c-0.9,0.4-1.7,1-2.5,1.7c-0.7,0.7-1.3,1.7-1.8,2.7
				C1120.1,343.6,1119.8,344.8,1119.7,346.2z"/>
			<path class="st3" d="M1167.6,335v11.1h-1.2c-0.4-1.7-0.9-3.2-1.5-4.4c-0.6-1.2-1.2-2.1-1.9-2.8c-0.7-0.7-1.5-1.1-2.4-1.4
				c-0.9-0.3-1.9-0.4-2.9-0.4c-0.8,0-1.6,0.1-2.3,0.4c-0.7,0.2-1.3,0.6-1.8,1c-0.5,0.4-0.9,0.8-1.1,1.3c-0.3,0.5-0.4,1-0.4,1.5
				c0,0.7,0.1,1.3,0.2,1.9c0.2,0.6,0.5,1.1,0.9,1.6c0.4,0.5,1,1,1.7,1.5s1.7,1,2.8,1.6l5.2,2.5c4.8,2.3,7.2,5.4,7.2,9.3
				c0,1.5-0.3,2.8-0.9,4.1c-0.6,1.2-1.4,2.3-2.5,3.1c-1,0.8-2.2,1.5-3.5,2c-1.3,0.5-2.6,0.7-4,0.7c-1,0-2.1-0.1-3.2-0.2
				c-1.1-0.2-2.3-0.4-3.6-0.8c-0.4-0.1-0.7-0.2-1.1-0.3c-0.3-0.1-0.6-0.1-0.8-0.1c-0.5,0-1,0.3-1.3,0.9h-1.2v-11.6h1.2
				c0.3,1.7,0.8,3.1,1.5,4.4c0.7,1.3,1.5,2.3,2.3,3.1c0.9,0.8,1.9,1.5,2.9,1.9c1.1,0.4,2.2,0.6,3.3,0.6c0.8,0,1.6-0.1,2.2-0.4
				c0.7-0.2,1.3-0.6,1.8-1c0.5-0.4,0.9-1,1.2-1.6c0.3-0.6,0.4-1.2,0.4-1.9c0-0.8-0.1-1.5-0.4-2.2c-0.2-0.7-0.7-1.3-1.3-1.9
				c-0.6-0.6-1.5-1.3-2.6-1.9c-1.1-0.7-2.6-1.5-4.3-2.3c-1.7-0.8-3.1-1.6-4.2-2.4c-1.1-0.7-1.9-1.5-2.5-2.2c-0.6-0.7-1-1.5-1.2-2.3
				c-0.2-0.8-0.3-1.7-0.3-2.8c0-1.3,0.2-2.6,0.7-3.7c0.5-1.1,1.2-2.1,2-3c0.9-0.8,1.9-1.5,3.1-2c1.2-0.5,2.5-0.7,4-0.7
				c0.5,0,1,0.1,1.8,0.2c0.7,0.1,1.4,0.3,2.1,0.5c0.7,0.2,1.4,0.3,2,0.5c0.6,0.1,1,0.2,1.2,0.2c0.4,0,0.7-0.1,0.9-0.2
				c0.2-0.2,0.4-0.5,0.7-1.1H1167.6z"/>
			<path class="st3" d="M1186.1,335v26.2c0,1.6,0.1,2.8,0.3,3.6c0.2,0.8,0.5,1.4,0.9,1.8c0.4,0.4,0.9,0.6,1.5,0.6
				c0.6,0.1,1.4,0.1,2.3,0.1v1.3h-15.8v-1.3c1.1,0,2-0.1,2.6-0.2c0.7-0.2,1.2-0.5,1.5-0.9c0.4-0.5,0.6-1.1,0.7-1.9
				c0.1-0.8,0.1-1.8,0.1-3.1v-12.5c0-2.1,0-3.7-0.1-4.9c-0.1-1.2-0.2-2.1-0.4-2.7c-0.2-0.6-0.4-1-0.8-1.1s-0.8-0.2-1.3-0.2
				c-0.4,0-0.7,0-1.1,0.1c-0.4,0.1-0.8,0.2-1.3,0.4l-0.5-1.3l9.8-4H1186.1z M1183.2,318c1,0,1.9,0.3,2.6,1c0.7,0.7,1,1.5,1,2.6
				c0,1-0.3,1.8-1,2.5c-0.7,0.7-1.5,1.1-2.6,1.1c-1,0-1.9-0.4-2.6-1.1c-0.7-0.7-1-1.6-1-2.5c0-1,0.3-1.9,1-2.6
				C1181.3,318.3,1182.1,318,1183.2,318z"/>
			<path class="st3" d="M1203.8,356.6c-2-1-3.6-2.3-4.6-4.1c-1.1-1.7-1.6-3.6-1.6-5.8c0-1.6,0.3-3.2,1-4.6c0.7-1.4,1.6-2.7,2.7-3.8
				c1.1-1.1,2.5-1.9,4.1-2.5c1.6-0.6,3.3-0.9,5.2-0.9c3.1,0,5.8,0.8,8.1,2.3h6.9c0.5,0,0.9,0,1.2,0c0.3,0,0.5,0,0.6,0.1
				c0.1,0,0.2,0.1,0.2,0.1c0,0.1,0,0.1,0.1,0.2c0.1,0.2,0.2,0.4,0.2,0.7c0,0.3,0,0.6,0,1c0,0.5-0.1,0.8-0.3,0.9
				c-0.2,0.1-0.9,0.2-2,0.2h-4.2c1.3,1.8,2,4,2,6.6c0,1.5-0.3,2.9-0.9,4.2c-0.6,1.3-1.5,2.5-2.6,3.5c-1.1,1-2.5,1.8-4.1,2.4
				c-1.6,0.6-3.4,0.9-5.3,0.9c-0.8,0-1.6-0.1-2.5-0.2c-0.8-0.1-1.7-0.3-2.5-0.5c-1.1,0.9-1.8,1.7-2.1,2.4c-0.4,0.7-0.5,1.2-0.5,1.7
				c0,0.4,0.1,0.7,0.2,1s0.5,0.5,1,0.6c0.5,0.2,1.3,0.3,2.4,0.4c1,0.1,2.5,0.2,4.3,0.2c2.4,0.1,4.4,0.2,6,0.3
				c1.6,0.1,2.7,0.2,3.5,0.3c2.2,0.3,4,1.1,5.3,2.4c1.3,1.3,1.9,3,1.9,4.9c0,1.8-0.5,3.4-1.5,5c-1,1.5-2.4,2.9-4.1,4
				c-1.7,1.2-3.6,2.1-5.8,2.7c-2.2,0.7-4.5,1-6.8,1c-1.6,0-3.3-0.2-5-0.5c-1.7-0.4-3.2-0.8-4.6-1.4c-1.4-0.6-2.5-1.3-3.4-2.1
				c-0.9-0.8-1.3-1.7-1.3-2.7c0-0.5,0.1-1,0.2-1.5c0.1-0.5,0.4-1,0.8-1.6c0.4-0.6,1.1-1.4,2-2.4c0.9-0.9,2-2.2,3.5-3.7
				c-1.2-0.7-2.1-1.4-2.6-2s-0.7-1.2-0.7-2c0-0.4,0.1-0.9,0.2-1.3c0.1-0.5,0.4-1,0.8-1.6c0.4-0.6,1-1.3,1.7-2
				C1201.6,358.6,1202.6,357.7,1203.8,356.6z M1203.4,368.5c-2.2,2.4-3.3,4.5-3.3,6.3c0,0.8,0.3,1.5,1,2.2c0.7,0.6,1.5,1.2,2.7,1.6
				c1.1,0.4,2.4,0.8,3.9,1c1.5,0.2,3.1,0.4,4.8,0.4c2.2,0,4-0.2,5.6-0.6c1.6-0.4,2.8-1,3.9-1.7c1-0.7,1.8-1.5,2.3-2.3
				c0.5-0.8,0.7-1.7,0.7-2.5c0-0.6-0.1-1.1-0.4-1.5c-0.2-0.4-0.7-0.8-1.4-1.1c-0.7-0.3-1.6-0.5-2.8-0.6c-1.2-0.1-2.7-0.2-4.5-0.3
				C1210.5,369.2,1206.4,369,1203.4,368.5z M1210,336.7c-1.7,0-3.2,0.7-4.4,2.1c-1.2,1.4-1.8,3.5-1.8,6.4c0,1.6,0.2,3.1,0.5,4.4
				c0.3,1.4,0.8,2.5,1.4,3.5c0.6,1,1.4,1.8,2.2,2.3c0.9,0.5,1.9,0.8,3,0.8c1.8,0,3.3-0.7,4.5-2c1.2-1.3,1.8-3.5,1.8-6.4
				c0-1.6-0.2-3.1-0.5-4.4c-0.3-1.4-0.8-2.5-1.4-3.6c-0.6-1-1.3-1.8-2.2-2.4C1212.1,337,1211.1,336.7,1210,336.7z"/>
			<path class="st3" d="M1241,341.9c3.8-4.6,7.4-6.9,10.9-6.9c1.2,0,2.3,0.2,3.3,0.6c1,0.4,1.9,1.1,2.7,2c0.8,0.9,1.4,2.2,1.8,3.8
				c0.4,1.6,0.6,3.5,0.6,5.9v13.9c0,1.4,0.1,2.5,0.2,3.3c0.2,0.8,0.4,1.4,0.8,1.8c0.4,0.4,0.9,0.7,1.5,0.8c0.6,0.1,1.5,0.2,2.4,0.2
				v1.3h-16.1v-1.3h0.6c1.1,0,1.9-0.1,2.5-0.3c0.6-0.2,1.1-0.5,1.4-1c0.3-0.5,0.5-1.1,0.6-1.9c0.1-0.8,0.1-1.8,0.1-2.9v-13.3
				c0-3-0.4-5.2-1.1-6.5c-0.8-1.3-2.1-2-3.9-2c-2.9,0-5.7,1.5-8.4,4.6v17.1c0,1.4,0,2.5,0.1,3.3c0.1,0.8,0.3,1.4,0.7,1.8
				c0.4,0.4,0.9,0.7,1.6,0.8c0.7,0.1,1.7,0.2,2.9,0.2v1.3h-16.1v-1.3h0.7c0.8,0,1.5-0.1,2.1-0.3c0.5-0.2,1-0.5,1.3-1
				c0.3-0.5,0.5-1.1,0.7-1.9c0.1-0.8,0.2-1.8,0.2-2.9v-12c0-2.3,0-4.1-0.1-5.4c-0.1-1.3-0.2-2.2-0.4-2.8c-0.2-0.6-0.5-0.9-0.8-1
				c-0.3-0.1-0.8-0.2-1.2-0.2c-0.4,0-0.7,0-1.1,0.1c-0.4,0.1-0.8,0.2-1.3,0.4l-0.5-1.3l9.8-4h1.5V341.9z"/>
		</g>
	</g>
	<g>
		<g>
			<g>
				<path class="st4" d="M273,395"/>
			</g>
		</g>
		<g>
			<g>
				<g>
					<path class="st5" d="M300.3,194.3c0.7,0.5-8,4.2-17.6,14.1c-2.4,2.5-4.7,5.4-6.3,8.9c-1.8,3.4-3.1,7.4-3.3,11.6
						c-0.5,8.5,3.6,17.6,10,25.6c1.1,1.3,2.4,2.7,3.3,3.6l-5.3,4.5c-1.6-2.4-2.9-4.7-4-7.3c-1.1-2.5-2-5.1-2.4-7.8
						c-0.4-2.7-0.4-5.6,0.4-8.3c0.7-2.7,2.5-5.3,4.5-6.9c2-1.6,4.2-2.9,6.3-3.6c0.5-0.2,1.1-0.4,1.6-0.5c0.5-0.2,1.1-0.2,1.6-0.4
						c0.5-0.2,1.1-0.2,1.6-0.4c0.5,0,1.1-0.2,1.5-0.2c2-0.4,4-0.4,5.8-0.5c1.8,0,3.6,0,5.3,0.2c6.7,0.4,12,1.3,15.6,2
						c3.6,0.7,5.6,1.3,5.6,1.3s-2,0-5.6-0.2c-3.6,0-8.9-0.2-15.4,0.2c-1.6,0-3.3,0.4-5.1,0.5c-1.6,0.4-3.4,0.5-5.3,1.1
						c-3.4,0.9-7.3,2.4-9.8,4.7c-2.5,2.4-3.3,6-2.4,10c0.9,4,3.1,8.3,5.6,12l-5.3,4.5c-1.3-1.3-2.5-2.7-3.8-4.2
						c-3.6-4.5-6.5-9.4-8.3-14.5c-0.9-2.5-1.6-5.3-2-8c-0.4-2.7-0.4-5.3,0-8c0.5-5.1,2.5-9.8,4.9-13.4c2.4-3.8,5.3-6.7,8.2-9.1
						C291.7,196.9,300.8,195,300.3,194.3z"/>
				</g>
			</g>
		</g>
		<g>
			<g>
				<g>
					<path class="st5" d="M526.5,196.5c0,0-1.6,0.5-4.4,1.5c-2.9,0.9-6.9,2.2-12.2,3.4c-5.3,1.1-11.6,2.2-19,1.5
						c-7.4-0.7-15.1-3.4-22.5-6.7c-3.6-1.6-7.3-3.3-10.5-4.5c-3.4-1.5-6.7-2.5-10-3.8c-6.3-2.2-12.3-3.8-17.4-4.9
						c-5.1-1.1-9.3-1.8-12.2-2.4c-2.9-0.4-4.5-0.7-4.5-0.7s0.4,0,1.3-0.2c0.7,0,2-0.2,3.4-0.4c2.9-0.2,7.3-0.4,12.7-0.2
						c5.3,0.4,11.6,1.1,18.7,2.7c3.4,0.9,7.1,1.8,10.7,3.1c3.6,1.3,7.4,2.9,11.1,4.5c7.3,3.3,14,6.2,20.5,7.3
						c6.5,1.3,12.5,1.1,17.8,0.9c5.3-0.4,9.4-0.7,12.3-1.1C524.8,196.7,526.5,196.5,526.5,196.5z"/>
				</g>
			</g>
		</g>
		<g>
			<g>
				<g>
					<path class="st5" d="M543.9,220.3c0,0-1.5,0.5-4.2,1.5c-2.7,0.9-6.5,2.5-11.4,4.4c-4.9,1.8-10.9,4-18,4.9
						c-3.6,0.4-7.4,0.5-11.6-0.2c-4-0.7-8.2-2.4-11.8-4.5s-6.7-4.7-9.6-7.1c-2.9-2.4-5.4-4.7-8.2-6.7c-5.3-4-10.5-7.3-14.9-9.6
						c-4.5-2.4-8.3-4.2-10.9-5.3c-1.3-0.5-2.4-0.9-3.1-1.3c-0.7-0.4-1.1-0.4-1.1-0.4s0.4,0,1.1,0.2c0.7,0.2,1.8,0.2,3.3,0.5
						c2.9,0.5,7.1,1.5,12,3.1c5.1,1.6,10.9,4.2,16.9,8c6.2,3.6,11.8,8.9,18,12.7c3.1,1.8,6.2,3.3,9.4,4s6.5,0.9,9.8,0.9
						c6.5-0.2,12.5-1.5,17.4-2.4c5.1-1.1,9.3-1.8,12.2-2.2C542.2,220.3,543.9,220.3,543.9,220.3z"/>
				</g>
			</g>
		</g>
		<g>
			<g>
				<g>
					<path class="st5" d="M540.2,250.9c0,0-0.2,0.2-0.7,0.4c-0.5,0.2-1.3,0.5-2.4,0.9c-2,0.7-5.1,1.5-8.9,2
						c-3.8,0.5-8.5,0.4-13.8-0.4c-5.1-0.9-10.7-2.5-16-5.4c-10.7-5.6-18.1-13.6-22.7-19.6c-2.4-3.1-4-5.6-5.1-7.4
						c-1.1-1.8-1.6-2.9-1.6-2.9s0.9,0.7,2.5,2.2c1.6,1.5,3.8,3.4,6.7,5.8c5.8,4.7,13.8,10.9,23.4,15.8c9.6,5.1,19.2,7.8,26.5,8.5
						c3.6,0.4,6.7,0.5,8.7,0.4c1.1,0,1.8,0,2.4-0.2C539.9,250.9,540.2,250.9,540.2,250.9z"/>
				</g>
			</g>
		</g>
		<g>
			<g>
				<g>
					<path class="st5" d="M466.2,235.1c0,0-0.7-0.7-2.2-2.2c-1.5-1.3-3.4-3.1-6.2-5.1c-5.4-4-13.4-8.3-23-11.6
						c-9.4-3.4-18.7-5.8-25.2-7.8c-6.7-1.8-10.7-3.3-10.7-3.3s4.4-0.4,11.2-0.2c6.9,0.2,16.7,0.9,27,4.7c10.3,3.8,18.5,10.2,23,15.8
						c2.4,2.7,3.8,5.3,4.7,7.1C465.9,234,466.2,235.1,466.2,235.1z"/>
				</g>
			</g>
		</g>
		<g>
			<g>
				<g>
					<path class="st5" d="M481.7,276.9c0,0-1.1-0.2-2.9-1.1c-1.8-0.7-4.4-2.4-6.7-5.1c-2.5-2.5-4.9-6.3-6.9-10.3
						c-2-4.2-4-8.3-6.3-12.5c-4.9-8.3-10.9-15.1-15.8-19.4c-2.4-2.2-4.5-4-6.2-5.1c-1.5-1.1-2.4-1.8-2.4-1.8s1.1,0.2,2.9,0.7
						c1.8,0.5,4.5,1.6,7.6,3.1c6.2,3.1,14.3,9.4,19.8,18.9c1.5,2.4,2.5,4.7,3.4,7.1c0.9,2.4,1.6,4.5,2.4,6.7
						c1.5,4.2,2.7,7.8,4.2,10.5c1.5,2.9,3.3,4.9,4.5,6.2C480.7,276.3,481.7,276.9,481.7,276.9z"/>
				</g>
			</g>
		</g>
		<g>
			<g>
				<g>
					<path class="st5" d="M514.9,266c0,0-0.2,0.2-0.5,0.4c-0.4,0.2-0.7,0.7-1.5,1.1c-1.3,0.9-3.3,2-6,2.5c-2.7,0.7-6.2,0.7-10,0.2
						c-3.6-0.7-7.6-2.4-11.2-4.9c-3.4-2.5-6.2-5.6-8.2-8.5c-2-2.9-3.4-5.8-4.5-8.2s-1.8-4.4-2.4-5.8s-0.7-2.2-0.7-2.2
						s0.5,0.5,1.6,1.6c1.1,1.1,2.5,2.5,4.4,4.5c3.6,3.8,8.3,8.9,14,13.1c5.6,4.2,11.8,6.5,16.7,6.9c2.4,0.2,4.5,0.2,5.8-0.2
						c0.7,0,1.3-0.2,1.6-0.4C514.7,266.2,514.9,266,514.9,266z"/>
				</g>
			</g>
		</g>
		<g>
			<g>
				<g>
					<path class="st5" d="M358.7,360.5c0,0-0.2-0.4-0.7-1.3c-0.5-0.7-1.1-2-1.8-3.8c-1.5-3.3-2.9-8.5-3.1-15.1
						c-0.4-6.5,0.5-14.3,2.2-22.7c1.6-8.3,3.8-17.2,4.9-26.5c0.5-4.5,0.7-9.1,0.4-13.4c-0.4-4.2-1.3-8.2-2.7-12
						c-2.7-7.6-6.7-13.8-10.5-18.5c-4-4.7-7.8-8.2-10.7-10.2c-1.5-1.1-2.5-1.8-3.3-2.4c-0.7-0.5-1.3-0.7-1.3-0.7s0.5,0.2,1.3,0.5
						c0.9,0.4,2.2,0.9,3.8,1.6c3.3,1.6,7.8,4.4,12.7,8.7c4.7,4.4,10,10.7,13.4,18.7c1.8,4,3.3,8.5,3.8,13.4c0.7,4.9,0.5,10,0,14.9
						c-1.3,10-4,19-6.2,27c-2.2,8-4,15.2-4.5,21.4s-0.2,11.2,0.5,14.7c0.4,1.6,0.7,3.1,1.1,4C358.7,359.9,358.7,360.5,358.7,360.5z"
						/>
				</g>
			</g>
		</g>
		<g>
			<g>
				<g>
					<path class="st5" d="M488.9,161.8c0,0-0.2,0.4-0.5,0.9c-0.4,0.5-0.9,1.3-1.6,2.4c-1.5,2-3.8,4.7-7.4,7.3
						c-3.6,2.5-8.9,4.7-14.9,5.4c-6.2,0.7-12.7,0-19.2-1.8c-6.5-1.6-12.3-4-17.6-5.6c-5.3-1.8-10-3.1-14-3.8c-4-0.7-7.4-0.7-9.8-0.5
						c-1.1,0.2-2.2,0.2-2.7,0.4c-0.5,0-0.9,0.2-0.9,0.2s0.4-0.2,0.9-0.4c0.5-0.4,1.5-0.7,2.5-1.1c2.4-0.9,5.8-1.6,10.3-1.8
						c4.4-0.2,9.8,0.4,15.4,1.5c5.6,1.3,11.6,2.9,17.8,4.5c6.2,1.6,11.8,2.7,17.1,2.7s10-1.1,13.6-2.7c3.8-1.6,6.5-3.6,8.3-4.9
						c0.9-0.7,1.6-1.3,2.2-1.8C488.7,162,488.9,161.8,488.9,161.8z"/>
				</g>
			</g>
		</g>
		<g>
			<g>
				<g>
					<path class="st5" d="M484.6,347.4c0,0-0.4-0.2-0.9-0.4c-0.4-0.2-0.7-0.2-1.3-0.4c-0.5-0.2-0.9-0.5-1.6-0.7
						c-2.4-1.3-5.6-3.4-8.5-7.4c-3.1-3.8-5.8-9.1-7.6-15.1c-2-6.2-2.9-13.1-3.6-20c-0.5-7.1-0.9-13.8-1.3-19.6
						c-0.4-6-1.1-11.2-2-15.6c-0.9-4.4-2.2-7.8-3.3-10.2c-1.1-2.4-1.6-3.6-1.6-3.6s0.9,1.1,2.7,3.1c1.6,2.2,3.8,5.3,5.6,9.8
						c1.8,4.4,3.4,9.8,4.5,16c1.1,6.2,1.8,12.9,2.4,19.8s1.1,13.4,2.4,19c1.1,5.8,2.9,10.7,4.9,14.7c2,4,4.4,6.7,6.3,8.3
						c0.5,0.4,0.9,0.7,1.3,1.1c0.4,0.4,0.7,0.5,1.1,0.7C484.4,347.2,484.6,347.4,484.6,347.4z"/>
				</g>
			</g>
		</g>
		<g>
			<g>
				<g>
					<path class="st5" d="M455.7,273c0,0-1.1-0.2-2.9-1.1c-1.8-0.7-4.4-2.4-6.7-5.1c-2.5-2.5-4.9-6.3-6.9-10.3
						c-2-4.2-4-8.3-6.3-12.5c-4.9-8.3-10.9-15.1-15.8-19.4c-2.4-2.2-4.5-4-6.2-5.1c-1.5-1.1-2.4-1.8-2.4-1.8s1.1,0.2,2.9,0.7
						s4.5,1.6,7.6,3.1c6.2,3.1,14.3,9.4,19.8,18.9c1.5,2.4,2.5,4.7,3.4,7.1c0.9,2.4,1.6,4.5,2.4,6.7c1.5,4.2,2.7,7.8,4.2,10.5
						c1.5,2.9,3.3,4.9,4.5,6.2C454.8,272.3,455.7,273,455.7,273z"/>
				</g>
			</g>
		</g>
		<g>
			<g>
				<g>
					<path class="st5" d="M403.1,102.9c0,0-0.4,1.6-1.3,4.4c-0.9,2.9-2,6.9-4,12c-2,4.9-4.9,10.9-9.6,16.5
						c-4.7,5.8-11.4,10.5-18.1,14.7c-3.4,2.2-6.7,4.2-9.8,6.2s-6,4-8.7,6.2c-5.4,4-10.2,8.2-14,11.6c-3.8,3.6-6.7,6.5-8.7,8.7
						c-2,2.2-3.1,3.4-3.1,3.4s0.2-0.4,0.5-1.1c0.4-0.7,0.9-1.6,1.6-2.9c1.5-2.5,3.8-6.2,7.1-10.5c3.3-4.2,7.4-9.1,12.7-13.8
						c2.7-2.4,5.4-4.7,8.7-7.1c3.1-2.4,6.5-4.4,10-6.5c6.7-4.2,12.9-8.2,17.6-12.7c4.7-4.7,8.2-9.8,10.9-14.1
						c2.7-4.4,4.7-8.2,6.2-10.7C402.2,104.3,403.1,102.9,403.1,102.9z"/>
				</g>
			</g>
		</g>
		<g>
			<g>
				<g>
					<path class="st5" d="M451.4,73.5c0,0-0.7,2-1.8,5.4c-1.1,3.6-2.5,8.7-4.5,15.2c-2,6.3-4.2,14.1-8.3,22.3c-2,4-4.5,8.2-7.8,12.2
						c-3.3,4-7.3,7.6-12,10.3c-4.5,2.9-9.4,4.9-13.8,6.7c-4.5,1.8-8.7,3.4-12.5,5.3c-7.8,3.6-14.7,7.4-20.1,11.1
						c-5.6,3.6-9.8,6.7-12.9,9.1c-1.5,1.1-2.5,2-3.4,2.7c-0.7,0.5-1.1,0.9-1.1,0.9s0.4-0.4,0.9-1.1s1.6-1.8,2.9-3.3
						c2.5-2.7,6.3-6.7,11.4-11.1c5.1-4.4,11.6-9.3,19.6-13.6c8-4.5,17.2-7.6,25.4-12.5c8.2-4.9,13.8-12.2,18.3-19.4
						c4.4-7.3,7.4-14.5,10.2-20.7s4.9-11.1,6.7-14.3C450.3,75.3,451.4,73.5,451.4,73.5z"/>
				</g>
			</g>
		</g>
		<g>
			<g>
				<g>
					<path class="st5" d="M339.8,133.5c0,0,0.2,0.2,0.4,0.5c0.2,0.4,0.7,0.9,1.1,1.8c0.9,1.6,2.2,4,3.1,7.4c0.7,3.4,0.9,8-0.9,12.7
						c-0.9,2.4-2.4,4.5-4,6.5c-1.6,2-3.6,3.8-5.8,5.3c-4.2,3.1-8.5,5.4-12,7.4c-3.6,2.2-6.7,4.2-8.9,6.2c-2.4,2-3.8,4.2-4.7,5.8
						c-0.4,0.7-0.7,1.5-0.9,1.8c-0.2,0.4-0.4,0.7-0.4,0.7s0-0.2,0-0.7s0-1.3,0.2-2.2c0.4-1.8,1.1-4.7,2.9-7.6s4.7-6,8.3-8.9
						c3.4-2.9,7.4-5.4,11.2-8.2c3.8-2.7,6.9-5.6,8.7-8.9c2-3.1,2.7-6.7,2.9-9.6c0.2-3.1-0.2-5.6-0.5-7.4c-0.2-0.9-0.4-1.6-0.4-2
						C339.8,133.7,339.8,133.5,339.8,133.5z"/>
				</g>
			</g>
		</g>
		<g>
			<g>
				<g>
					<path class="st5" d="M470.2,135.7c0,0-0.9,1.1-2.7,2.9c-1.8,1.8-4.4,4.5-8,7.6c-3.6,3.1-8.2,6.3-14.3,8.5
						c-6.2,2.2-13.4,2.7-20.5,2.4c-7.1-0.2-13.4-0.7-19,0c-5.6,0.5-10.7,2-14.9,3.6c-4.2,1.6-7.3,3.4-9.4,4.7
						c-1.1,0.7-2,1.3-2.5,1.6s-0.9,0.5-0.9,0.5s0.2-0.4,0.7-0.7c0.4-0.5,1.1-1.3,2-2.2c1.8-1.8,4.5-4.5,8.5-7.1
						c4-2.5,9.3-5.1,15.4-6.3c6.3-1.5,13.2-1.3,20.1-1.1c6.9,0.2,13.1,0.2,18.5-1.1c5.4-1.3,10.2-3.6,14.1-5.8
						c4-2.2,7.1-4.2,9.3-5.6C469.1,136.5,470.2,135.7,470.2,135.7z"/>
				</g>
			</g>
		</g>
	</g>
</g>
<g id="LINEA_FENIX">
</g>
</svg>
