<?xml version="1.0" encoding="utf-8"?>
<!-- Generator: Adobe Illustrator 26.5.0, SVG Export Plug-In . SVG Version: 6.00 Build 0)  -->
<svg version="1.1" xmlns="http://www.w3.org/2000/svg" xmlns:xlink="http://www.w3.org/1999/xlink" x="0px" y="0px"
	 viewBox="0 0 9095.9 2794.1" style="enable-background:new 0 0 9095.9 2794.1;" xml:space="preserve">
<style type="text/css">
	.st0{fill:#E6E6E6;stroke:#000000;stroke-width:11.8296;stroke-miterlimit:10;}
	.st1{stroke:#000000;stroke-width:8.5362;stroke-miterlimit:10;}
	.st2{fill:#F7F7F7;stroke:#000000;stroke-width:14.9919;stroke-miterlimit:10;}
	.st3{fill:#E6E6E6;stroke:#000000;stroke-width:23.1155;stroke-miterlimit:10;}
	.st4{fill:#FFFFFF;}
	.st5{fill:none;stroke:#000000;stroke-width:29.0461;stroke-miterlimit:10;}
	.st6{fill:none;stroke:#000000;stroke-width:20.7472;stroke-miterlimit:10;}
	.st7{fill:none;stroke:#000000;stroke-width:24.8967;stroke-miterlimit:10;}
	.st8{fill:none;stroke:#000000;stroke-width:23.1155;stroke-miterlimit:10;}
</style>
<g id="ELEMENTOS">
	<g id="PARTES-7">
		<g id="TRIPLEX">
			<g>
				<polyline class="st0" points="2117.9,550.2 2264.7,475.2 8476.7,505.2 8441.2,593.1 				"/>
				<polygon class="st0" points="8425.1,2381 2110.8,2352.9 2125.2,555.4 8447.4,586.1 				"/>
				<polygon class="st0" points="8461.2,2345.1 8423.9,2385.4 8441.2,590 8476.7,505.2 				"/>
			</g>
			<g>
				<g>
					<path d="M5038.2,1366.9v36.1h-2.5c-1.2-9.7-4.1-16.5-8.5-20.5c-4.4-4-11-6-19.6-6h-21.6v117.2c0,5.2,0.4,9.2,1.1,12.2
						c0.7,3,1.8,5.2,3.1,6.7c1.3,1.5,3,2.4,5.1,2.8c2,0.4,4.4,0.6,7.1,0.6h5.2v4.2h-64.9v-4.2h5.4c2.7,0,5.1-0.2,7.1-0.7
						c2-0.4,3.7-1.4,5.1-3c1.3-1.5,2.4-3.7,3.1-6.7c0.7-2.9,1.1-6.9,1.1-12v-117.2h-18.4c-4.6,0-8.7,0.4-12.2,1.1
						c-3.5,0.7-6.6,2.1-9.2,4c-2.6,2-4.6,4.7-6.2,8.1c-1.5,3.4-2.4,7.8-2.8,13.2h-4.2v-36.1H5038.2z"/>
					<path d="M5201.9,1520.1h-40.8l-51.9-71.7c-1.9,0.1-3.6,0.2-5.1,0.3c-1.5,0.1-2.9,0.1-4.1,0.1c-1,0-2.1,0-3.2-0.1
						c-1.1-0.1-2.3-0.1-3.5-0.3v44.5c0,5.4,0.4,9.6,1.1,12.7c0.7,3.1,1.8,5.4,3.2,6.9c1.4,1.5,3.1,2.4,5.1,2.8
						c2,0.3,4.2,0.5,6.7,0.5h6.1v4.2h-65.8v-4.2h5.9c6.3,0,10.9-2.1,13.8-6.2c1.6-2.5,2.4-8,2.4-16.7v-99c0-9.4-1.1-15.4-3.2-17.9
						c-2.9-3.4-7.3-5.1-13-5.1h-5.9v-4.2h55.8c8.2,0,15.3,0.3,21.2,0.9c6,0.6,10.8,1.5,14.7,2.8c3.8,1.2,7.4,3,10.8,5.1
						c3.4,2.2,6.3,4.8,8.9,7.9c2.5,3.1,4.5,6.5,6,10.4c1.5,3.8,2.2,7.9,2.2,12.3c0,9.6-3,17.8-9.1,24.6
						c-6.1,6.9-15.6,11.7-28.5,14.7l31.5,43.8c3.7,5.1,7,9.2,9.9,12.5c2.9,3.3,5.7,5.8,8.6,7.8c2.9,1.9,5.9,3.3,9.1,4.2
						c3.2,0.9,7,1.6,11.4,2V1520.1z M5093.1,1441.4c1.5,0,2.7,0,3.8,0.1c1.1,0.1,1.9,0.1,2.6,0.1c7.3,0,13.7-0.8,19.2-2.5
						c5.5-1.7,10.1-4,13.8-7.1c3.7-3,6.5-6.6,8.3-10.7c1.9-4.1,2.8-8.6,2.8-13.4c0-4.7-0.8-9.1-2.4-13.1c-1.6-4-3.8-7.4-6.7-10.3
						c-2.9-2.9-6.4-5.1-10.5-6.7c-4-1.6-8.5-2.4-13.3-2.4c-4.6,0-10.5,0.7-17.7,2.2V1441.4z"/>
					<path d="M5271.2,1515.9v4.2h-65.6v-4.2h5.4c2.7,0,5.1-0.2,7.2-0.6c2.1-0.4,3.8-1.3,5.1-2.9c1.3-1.5,2.4-3.8,3.1-6.9
						c0.7-3.1,1.1-7.3,1.1-12.6v-99c0-3.5-0.1-6.4-0.3-8.7c-0.2-2.3-0.5-4.2-0.8-5.6c-0.4-1.5-1-2.6-1.8-3.5
						c-0.8-0.8-1.9-1.7-3.2-2.4c-3.4-1.8-6.9-2.7-10.5-2.7h-5.4v-4.2h65.6v4.2h-5.4c-2.7,0-5.1,0.2-7.2,0.7
						c-2.1,0.5-3.8,1.4-5.1,2.9c-1.3,1.5-2.4,3.8-3.1,6.9c-0.7,3.1-1.1,7.2-1.1,12.4v99c0,3.6,0.1,6.5,0.2,8.8
						c0.1,2.3,0.4,4.1,0.8,5.6c0.4,1.5,1.1,2.6,1.9,3.5c0.8,0.8,1.9,1.7,3.3,2.4c3.1,1.8,6.6,2.7,10.3,2.7H5271.2z"/>
					<path d="M5324.3,1448.5v44.5c0,9.8,1.1,15.8,3.2,18c2.9,3.3,7.2,4.9,13,4.9h5.9v4.2h-65.6v-4.2h5.7c6.4,0,11-2.1,13.8-6.2
						c1.6-2.5,2.4-8,2.4-16.7v-99c0-9.6-1-15.5-3-17.9c-3-3.4-7.4-5.1-13.2-5.1h-5.7v-4.2h56.1c13.5,0,24.3,1.5,32.4,4.4
						c3.9,1.3,7.6,3.2,11,5.6c3.4,2.4,6.4,5.3,8.9,8.6c2.5,3.3,4.5,7,6,11c1.5,4,2.2,8.3,2.2,12.9c0,6.2-1.1,11.9-3.2,17
						c-2.1,5.2-5.2,9.6-9.3,13.3c-4,3.7-9,6.6-14.8,8.7c-5.8,2.1-12.5,3.1-20.1,3.1C5342.8,1451.5,5334.2,1450.5,5324.3,1448.5z
						 M5324.3,1441.9c4,0.8,7.6,1.4,10.6,1.8c3,0.4,5.7,0.6,7.9,0.6c3.9,0,7.6-0.8,11.1-2.4c3.5-1.6,6.5-3.9,9.2-6.7
						c2.6-2.9,4.7-6.3,6.2-10.4c1.5-4,2.3-8.4,2.3-13.2c0-5.6-0.8-10.6-2.5-15c-1.7-4.4-4-8.1-6.9-11.1c-2.9-3-6.4-5.3-10.3-6.9
						c-3.9-1.6-8.2-2.4-12.8-2.4c-3.8,0-8.8,0.7-14.8,2V1441.9z"/>
					<path d="M5538.2,1477.8l3.7,0.7l-13.2,41.6h-118.7v-4.2h5.9c6.3,0,10.9-2.1,13.8-6.2c1.6-2.5,2.4-8,2.4-16.7v-99
						c0-9.4-1.1-15.4-3.2-17.9c-2.9-3.4-7.2-5.1-13-5.1h-5.9v-4.2h69.5v4.2c-4.2,0-7.6,0.2-10.4,0.6c-2.8,0.4-5,1-6.8,1.7
						c-1.8,0.7-3.2,1.6-4.2,2.6c-1,1-1.9,2.1-2.5,3.4c-1.1,2.2-1.7,8-1.7,17.4v96.3c0,5.3,0.4,9.1,1.2,11.5c0.8,2.4,2.4,4,4.7,4.9
						c2,0.7,7.9,1,17.7,1h11.1c11.8,0,20.1-0.8,24.8-2.5c2.4-0.8,4.6-1.9,6.7-3.4c2.1-1.5,4.2-3.4,6.2-5.7c2-2.4,4-5.2,5.9-8.6
						C5534.2,1486.7,5536.2,1482.6,5538.2,1477.8z"/>
					<path d="M5595.2,1375.3v60.5h33.6c4.9,0,8.9-0.4,12-1.3c3-0.9,5.4-2.2,7.2-4c1.7-1.8,3-4.1,3.6-6.9c0.7-2.8,1.1-6.1,1.3-9.9
						h4.2v53.3h-4.2c-0.6-4.4-1.2-8-1.9-11c-0.7-2.9-1.9-5.3-3.5-7c-1.6-1.7-3.9-3-6.8-3.7c-2.9-0.7-6.9-1.1-11.8-1.1h-33.6v50.6
						c0,3.8,0.1,6.9,0.2,9.1c0.1,2.3,0.6,4,1.3,5.1c0.8,1.2,2,1.9,3.7,2.3c1.7,0.3,4.2,0.5,7.4,0.5h26c4.4,0,8.1-0.1,11.1-0.3
						c3-0.2,5.6-0.7,7.8-1.3c2.2-0.7,4.1-1.6,5.8-2.8c1.7-1.2,3.5-2.7,5.4-4.5c4.5-4.4,9.3-11.4,14.3-21.1h4.6l-13.3,38.4h-118v-4.2
						h5.4c1.5,0,3-0.2,4.6-0.5c1.6-0.3,3.1-0.8,4.5-1.4c1.4-0.6,2.7-1.4,3.8-2.4c1.1-1,1.9-2.2,2.4-3.5c0.9-2.5,1.3-7.4,1.3-14.8
						v-99.5c0-9.8-1-15.8-2.9-18c-2.7-3-7.2-4.6-13.7-4.6h-5.4v-4.2h118v33.6h-2.7c-1.1-5.5-2.3-9.9-3.6-13.2
						c-1.3-3.3-3-5.9-5.1-7.7c-2.1-1.8-4.9-3-8.2-3.5c-3.3-0.5-7.6-0.8-12.7-0.8H5595.2z"/>
					<path d="M5782.5,1435.3l32.9,49.1c4.7,7,8.6,12.5,11.7,16.6c3.1,4.1,6,7.2,8.6,9.4c2.6,2.1,5.2,3.6,7.8,4.3
						c2.5,0.7,5.5,1.2,9,1.3v4.2h-65.8v-4.2c6.2-0.1,10.3-1.1,12.2-2.9c2-1.8,3-4.3,3-7.6c0-0.6-0.1-1.1-0.2-1.6
						c-0.1-0.5-0.4-1.2-0.9-2.2c-0.5-1-1.3-2.2-2.3-3.6c-1-1.5-2.3-3.4-3.9-5.9l-26-39.3l-32.2,41.1c-1.8,2.2-3.2,4-4.1,5.4
						c-1,1.3-1.7,2.5-2.1,3.4c-0.5,0.9-0.7,1.7-0.8,2.4c-0.1,0.7-0.1,1.4-0.1,2.2c0,2.4,1,4.3,3,5.9c2,1.6,5.9,2.5,11.6,2.7v4.2
						h-54.3v-4.2c3.7-0.2,7.2-1,10.5-2.2c3.3-1.2,6.4-2.9,9.4-5c3-2.1,5.9-4.7,8.9-7.8c2.9-3.1,6-6.6,9.1-10.5l36.1-45.7l-30.2-44.2
						c-4.2-6.1-7.9-11-11.2-14.8c-3.3-3.8-6.5-6.7-9.6-8.8c-3.1-2.1-6.2-3.5-9.4-4.4c-3.1-0.8-6.6-1.4-10.5-1.6v-4.2h70.8v4.2
						c-6,0.2-10.1,1.2-12.3,3c-2.2,1.7-3.4,3.7-3.4,5.8c0,2.8,1.8,6.9,5.4,12.1l23.6,35.2l27.1-34.6c1.7-2.1,3-3.8,3.9-5.1
						c0.9-1.3,1.6-2.4,2-3.2c0.4-0.8,0.7-1.6,0.8-2.3c0.1-0.7,0.2-1.5,0.2-2.4c0-3.3-1.2-5.5-3.6-6.6c-2.4-1.1-6.7-1.8-12.7-2v-4.2
						h54.3v4.2c-5.2,0.3-9.4,1.3-12.6,2.9c-3.2,1.6-6.3,3.7-9.2,6.2c-3.1,2.7-7.9,8.1-14.3,16.2L5782.5,1435.3z"/>
				</g>
			</g>
		</g>
		<g>
			<g>
				<path d="M479.3,1813.9v26.5h-1.9c-0.9-7.1-3-12.1-6.3-15c-3.3-2.9-8.1-4.4-14.4-4.4H441v86c0,3.8,0.3,6.8,0.8,9
					c0.5,2.2,1.3,3.8,2.3,4.9c1,1.1,2.2,1.8,3.7,2c1.5,0.3,3.2,0.4,5.2,0.4h3.8v3.1h-47.7v-3.1h4c2,0,3.7-0.2,5.2-0.5
					c1.5-0.3,2.7-1.1,3.7-2.2c1-1.1,1.8-2.7,2.3-4.9c0.5-2.1,0.8-5.1,0.8-8.8v-86h-13.5c-3.4,0-6.4,0.3-9,0.8
					c-2.6,0.5-4.8,1.5-6.7,3c-1.9,1.4-3.4,3.4-4.5,5.9c-1.1,2.5-1.8,5.8-2,9.7h-3.1v-26.5H479.3z"/>
				<path d="M519.7,1866.1h52.2v-32.2c0-2.6,0-4.8-0.1-6.5c-0.1-1.7-0.3-3.1-0.6-4.1c-0.3-1.1-0.8-1.9-1.4-2.5
					c-0.6-0.6-1.4-1.2-2.4-1.8c-2.3-1.3-4.8-2-7.6-2h-4v-3.1H604v3.1h-4c-1.1,0-2.2,0.1-3.4,0.4c-1.2,0.2-2.3,0.6-3.3,1.1
					c-1,0.5-2,1.1-2.8,1.9c-0.8,0.7-1.4,1.6-1.7,2.6c-0.6,1.7-0.9,5.4-0.9,11v72.6c0,2.6,0.1,4.8,0.2,6.4c0.1,1.7,0.3,3,0.6,4.1
					c0.3,1.1,0.7,1.9,1.3,2.5c0.6,0.6,1.4,1.2,2.4,1.8c2.3,1.3,4.9,2,7.7,2h4v3.1h-48.2v-3.1h4c1.9,0,3.6-0.1,5.1-0.4
					c1.5-0.3,2.8-1,3.8-2.1c1.1-1.1,1.9-2.8,2.4-5.1c0.5-2.3,0.8-5.3,0.8-9.2v-34.3h-52.2v34.3c0,2.6,0,4.8,0.1,6.4
					c0.1,1.7,0.3,3,0.6,4.1c0.3,1.1,0.8,1.9,1.4,2.5c0.6,0.6,1.4,1.2,2.4,1.8c2.3,1.3,4.8,2,7.6,2h4.1v3.1h-48.3v-3.1h4.1
					c4.5,0,7.9-1.4,10-4.1c1.3-1.7,2-5.9,2-12.8v-72.6c0-2.7,0-4.9-0.1-6.6c-0.1-1.7-0.3-3.1-0.6-4.1c-0.3-1-0.8-1.9-1.4-2.5
					c-0.6-0.6-1.4-1.2-2.4-1.8c-2.3-1.3-4.8-2-7.6-2h-4.1v-3.1h48.3v3.1h-4.1c-1,0-2.1,0.1-3.3,0.4c-1.2,0.2-2.3,0.6-3.3,1.1
					c-1,0.5-2,1.1-2.8,1.9c-0.8,0.7-1.4,1.6-1.7,2.6c-0.7,2-1,5.7-1,11V1866.1z"/>
				<path d="M659.8,1923.3v3.1h-48.2v-3.1h4c2,0,3.7-0.1,5.3-0.4c1.5-0.3,2.8-1,3.8-2.1c1-1.1,1.8-2.8,2.3-5.1
					c0.5-2.3,0.8-5.3,0.8-9.2v-72.7c0-2.6-0.1-4.7-0.2-6.4c-0.1-1.7-0.3-3.1-0.6-4.1c-0.3-1.1-0.7-1.9-1.3-2.5
					c-0.6-0.6-1.4-1.2-2.4-1.8c-2.5-1.3-5-2-7.7-2h-4v-3.1h48.2v3.1h-4c-2,0-3.7,0.2-5.3,0.5c-1.5,0.3-2.8,1.1-3.8,2.2
					c-1,1.1-1.8,2.8-2.3,5.1c-0.5,2.3-0.8,5.3-0.8,9.1v72.7c0,2.6,0,4.8,0.1,6.4c0.1,1.7,0.3,3,0.6,4.1c0.3,1.1,0.8,1.9,1.4,2.5
					c0.6,0.6,1.4,1.2,2.4,1.8c2.3,1.3,4.8,2,7.6,2H659.8z"/>
				<path d="M766.3,1811.4l2.6,38.3h-2.6c-3.5-11.5-8.4-19.7-14.7-24.8c-6.3-5-13.9-7.6-22.8-7.6c-5.8,0-11.1,1.1-16,3.3
					c-4.9,2.2-9.1,5.6-12.6,10.1c-3.5,4.5-6.3,10.2-8.2,17.1c-2,6.9-3,14.9-3,24.3c0,7.5,0.9,14.3,2.8,20.4
					c1.9,6.1,4.6,11.3,8.2,15.7c3.6,4.3,8,7.7,13.2,10c5.2,2.4,11.2,3.5,18,3.5c7.1,0,13.5-1.6,19.3-4.7c5.5-2.9,11.7-9.1,18.4-18.6
					l2.6,1.6c-5.7,10-12.3,17.3-19.7,22c-7.5,4.7-16.4,7-26.8,7c-8,0-15.4-1.4-22-4.2c-6.7-2.8-12.4-6.7-17.3-11.8
					c-4.8-5.1-8.6-11.1-11.3-18.1c-2.7-7-4.1-14.6-4.1-23c0-11.3,2.5-21.6,7.6-31c5-9.4,11.8-16.7,20.7-21.8
					c8.9-5.2,18.6-7.8,29-7.8c8.2,0,16.2,2,24,5.9c2.3,1.2,4,1.9,5,1.9c1.8,0,3.3-0.7,4.5-2.2c1.2-1.5,2-3.3,2.5-5.6H766.3z"/>
				<path d="M828.1,1864l41.5,41.2c3.5,3.5,6.6,6.3,9.4,8.6c2.8,2.3,5.4,4.1,7.9,5.4c2.5,1.4,4.9,2.4,7.2,3c2.4,0.6,4.8,1,7.2,1.1
					v3.1h-53.5v-3.1c3.5,0,5.9-0.6,7.2-1.9c1.2-1.2,1.9-2.6,1.9-4c0-0.6,0-1.1-0.1-1.5c-0.1-0.5-0.3-1-0.7-1.5
					c-0.4-0.6-1-1.3-1.8-2.2c-0.8-0.9-1.9-2.1-3.3-3.5l-38.9-38.5v36.3c0,2.6,0.1,4.8,0.2,6.4c0.1,1.7,0.3,3,0.6,4.1
					c0.3,1.1,0.7,1.9,1.4,2.5c0.6,0.6,1.4,1.2,2.4,1.8c2.4,1.3,4.9,2,7.6,2h3.8v3.1h-47.9v-3.1h4c4.6,0,8-1.4,10.2-4.1
					c1.3-1.8,2-6.1,2-12.8v-72.7c0-2.5,0-4.6-0.1-6.3c-0.1-1.7-0.3-3.1-0.6-4.1c-0.3-1.1-0.8-2-1.4-2.7c-0.6-0.7-1.4-1.3-2.4-1.8
					c-2.6-1.3-5.2-2-7.7-2h-4v-3.1h47.9v3.1h-3.8c-2.1,0-4.2,0.5-6.5,1.4c-2.3,0.9-3.8,2.4-4.6,4.6c-0.7,1.8-1,5.4-1,10.9v34.4
					c0.1-0.1,0.6-0.6,1.7-1.5c1-0.9,2.2-2,3.5-3.2c1.3-1.2,2.5-2.3,3.7-3.5c1.2-1.2,2-1.9,2.5-2.4c6-5.5,11.1-10.3,15.2-14.2
					c4.1-4,7.4-7.3,9.9-10.1c2.5-2.8,4.2-5.1,5.3-6.9c1.1-1.9,1.6-3.4,1.6-4.6c0-1.3-0.6-2.5-1.7-3.4c-1.2-0.9-3.1-1.4-5.9-1.4h-2.6
					v-3.1h41.4v3.1c-1.5,0.1-3,0.2-4.5,0.4c-1.5,0.2-3.2,0.7-5.1,1.5c-1.9,0.8-4,2.1-6.4,3.8c-2.4,1.7-5.2,4.1-8.5,7.2
					c-0.7,0.6-2.4,2.3-5.1,5.1c-2.7,2.8-6.6,6.8-11.8,11.8L828.1,1864z"/>
				<path d="M897.8,1813.9h30.5l68.8,84.4v-64.9c0-3.8-0.3-6.8-0.8-9c-0.5-2.2-1.3-3.9-2.4-5c-1-1.1-2.3-1.8-3.8-2
					c-1.5-0.3-3.2-0.4-5.1-0.4h-4v-3.1h39.2v3.1h-4.1c-2,0-3.7,0.2-5.2,0.5c-1.5,0.3-2.7,1.1-3.7,2.2c-1,1.2-1.7,2.8-2.2,5
					c-0.5,2.1-0.7,5.1-0.7,8.8v94.8h-3l-74.2-90.6v69.3c0,3.9,0.3,6.9,0.8,9.1c0.5,2.2,1.3,3.8,2.3,4.9c1,1.1,2.2,1.7,3.7,2
					c1.5,0.2,3.2,0.4,5.1,0.4h4v3.1H904v-3.1h4c2,0,3.7-0.2,5.2-0.5c1.5-0.3,2.7-1.1,3.8-2.2c1-1.1,1.8-2.7,2.3-4.9
					c0.5-2.1,0.7-5.1,0.7-8.8v-78.2c-1.7-2-3-3.5-4.1-4.7c-1.1-1.2-2.2-2.1-3.2-2.8c-1-0.7-2.1-1.4-3.2-1.9c-1.2-0.5-2.6-1-4.3-1.6
					c-1.7-0.5-4.1-0.7-7.3-0.7V1813.9z"/>
				<path d="M1058.3,1820.1v44.4h24.6c3.6,0,6.6-0.3,8.8-1c2.2-0.7,4-1.7,5.3-3c1.3-1.3,2.2-3,2.7-5.1c0.5-2.1,0.8-4.5,1-7.3h3.1
					v39.1h-3.1c-0.4-3.2-0.9-5.9-1.4-8c-0.5-2.1-1.4-3.9-2.6-5.1c-1.2-1.3-2.9-2.2-5-2.7c-2.1-0.5-5-0.8-8.7-0.8h-24.6v37.1
					c0,2.8,0,5,0.1,6.7c0.1,1.7,0.4,2.9,1,3.8c0.6,0.9,1.5,1.4,2.7,1.7c1.2,0.2,3.1,0.4,5.4,0.4h19.1c3.2,0,5.9-0.1,8.2-0.2
					c2.2-0.2,4.1-0.5,5.8-1s3-1.2,4.3-2c1.2-0.9,2.6-2,4-3.3c3.3-3.2,6.8-8.4,10.5-15.5h3.3l-9.8,28.2h-86.7v-3.1h4
					c1.1,0,2.2-0.1,3.3-0.4c1.2-0.2,2.2-0.6,3.3-1.1c1-0.5,2-1.1,2.8-1.8c0.8-0.7,1.4-1.6,1.7-2.6c0.7-1.8,1-5.4,1-10.9v-73
					c0-7.2-0.7-11.6-2.1-13.2c-2-2.2-5.3-3.3-10-3.3h-4v-3.1h86.7v24.6h-2c-0.8-4-1.7-7.3-2.7-9.7c-0.9-2.4-2.2-4.3-3.8-5.6
					c-1.6-1.3-3.6-2.2-6-2.5c-2.4-0.4-5.6-0.6-9.3-0.6H1058.3z"/>
				<path d="M1204.4,1811.4v38.9h-3.1c-1.4-10.5-4.8-18.5-10.3-24c-5.4-5.5-12.4-8.3-20.8-8.3c-2.9,0-5.5,0.5-7.9,1.5
					c-2.4,1-4.5,2.3-6.3,3.9c-1.8,1.6-3.2,3.4-4.2,5.5c-1,2.1-1.5,4.2-1.5,6.4c0,2.1,0.4,4,1.2,5.9c0.8,1.9,3.4,4.8,7.7,8.7
					c7.2,4.5,13.6,8.3,19.2,11.3c5.3,2.9,12.4,7.3,21.4,13.1c3.9,3,6.8,6.5,8.9,10.6c2.1,4.1,3.1,8.4,3.1,12.8c0,4.2-0.9,8.2-2.6,12
					c-1.7,3.8-4.1,7.1-7.2,10c-3.1,2.8-6.8,5.1-11.2,6.8c-4.4,1.7-9.2,2.5-14.4,2.5c-3.3,0-6.4-0.2-9.2-0.7
					c-0.5-0.1-1.8-0.4-3.9-1.1c-2.1-0.6-4.4-1.3-6.7-1.9c-2.4-0.7-4.6-1.3-6.7-1.9c-2.1-0.6-3.3-0.9-3.6-0.9c-1.4,0-2.5,0.4-3.3,1.2
					c-0.8,0.8-1.4,2.6-1.8,5.2h-3.1v-38.6h3.1c1.5,7.9,3.4,14,5.8,18.2c1.2,2,2.7,3.8,4.6,5.5c1.9,1.7,4.1,3.2,6.6,4.5
					c2.4,1.3,5.1,2.3,7.9,3c2.8,0.7,5.7,1.1,8.5,1.1c3.5,0,6.6-0.5,9.3-1.5c2.8-1,5.1-2.3,7.1-4c1.9-1.7,3.4-3.7,4.5-5.9
					c1-2.2,1.5-4.6,1.5-7.1c0-2.8-0.8-5.6-2.3-8.4c-1.5-2.8-4.1-5.6-7.7-8.3c-3.5-2.1-7.8-4.7-12.6-7.6
					c-9.3-5.4-17.6-10.5-24.9-15.5c-4-3.2-7.1-6.7-9.2-10.6c-2.1-3.8-3.2-8.1-3.2-12.8c0-4,0.8-7.7,2.5-11.3
					c1.7-3.6,3.9-6.7,6.9-9.5c2.9-2.7,6.4-4.9,10.5-6.4c4-1.6,8.4-2.4,13.1-2.4c5.9,0,12.3,1.4,18.9,4.3c1.6,0.7,2.9,1.2,4,1.6
					c1.1,0.4,1.9,0.6,2.6,0.5c1.5,0,2.7-0.4,3.6-1.2c0.9-0.8,1.6-2.6,2.1-5.2H1204.4z"/>
				<path d="M1298.8,1811.4v38.9h-3.1c-1.4-10.5-4.8-18.5-10.3-24c-5.4-5.5-12.4-8.3-20.8-8.3c-2.9,0-5.5,0.5-7.9,1.5
					c-2.4,1-4.5,2.3-6.3,3.9c-1.8,1.6-3.2,3.4-4.2,5.5c-1,2.1-1.5,4.2-1.5,6.4c0,2.1,0.4,4,1.2,5.9c0.8,1.9,3.4,4.8,7.7,8.7
					c7.2,4.5,13.6,8.3,19.2,11.3c5.3,2.9,12.4,7.3,21.4,13.1c3.9,3,6.8,6.5,8.9,10.6c2.1,4.1,3.1,8.4,3.1,12.8c0,4.2-0.9,8.2-2.6,12
					c-1.7,3.8-4.1,7.1-7.2,10c-3.1,2.8-6.8,5.1-11.2,6.8c-4.4,1.7-9.2,2.5-14.4,2.5c-3.3,0-6.4-0.2-9.2-0.7
					c-0.5-0.1-1.8-0.4-3.9-1.1c-2.1-0.6-4.4-1.3-6.7-1.9c-2.4-0.7-4.6-1.3-6.7-1.9c-2.1-0.6-3.3-0.9-3.6-0.9c-1.4,0-2.5,0.4-3.3,1.2
					c-0.8,0.8-1.4,2.6-1.8,5.2h-3.1v-38.6h3.1c1.5,7.9,3.4,14,5.8,18.2c1.2,2,2.7,3.8,4.6,5.5c1.9,1.7,4.1,3.2,6.6,4.5
					c2.4,1.3,5.1,2.3,7.9,3c2.8,0.7,5.7,1.1,8.5,1.1c3.5,0,6.6-0.5,9.3-1.5c2.8-1,5.1-2.3,7.1-4c1.9-1.7,3.4-3.7,4.5-5.9
					c1-2.2,1.5-4.6,1.5-7.1c0-2.8-0.8-5.6-2.3-8.4c-1.5-2.8-4.1-5.6-7.7-8.3c-3.5-2.1-7.8-4.7-12.6-7.6
					c-9.3-5.4-17.6-10.5-24.9-15.5c-4-3.2-7.1-6.7-9.2-10.6c-2.1-3.8-3.2-8.1-3.2-12.8c0-4,0.8-7.7,2.5-11.3
					c1.7-3.6,3.9-6.7,6.9-9.5c2.9-2.7,6.4-4.9,10.5-6.4c4-1.6,8.4-2.4,13.1-2.4c5.9,0,12.3,1.4,18.9,4.3c1.6,0.7,2.9,1.2,4,1.6
					c1.1,0.4,1.9,0.6,2.6,0.5c1.5,0,2.7-0.4,3.6-1.2c0.9-0.8,1.6-2.6,2.1-5.2H1298.8z"/>
			</g>
			<g>
				<path d="M548.1,1985.7c7.2,0,14,1.5,20.6,4.5c6.5,3,12.3,7.1,17.2,12.3c5,5.2,8.9,11.3,11.8,18.4c2.9,7.1,4.4,14.7,4.4,23
					c0,8.5-1.5,16.4-4.4,23.6c-2.9,7.3-6.9,13.6-11.9,18.9c-5,5.3-10.9,9.5-17.6,12.5c-6.7,3-13.9,4.5-21.5,4.5
					c-7.7,0-14.9-1.4-21.5-4.3c-6.7-2.9-12.5-7-17.4-12.2c-4.9-5.2-8.8-11.5-11.6-18.8c-2.8-7.3-4.3-15.3-4.3-24
					c0-8.1,1.4-15.7,4.3-22.8c2.8-7.1,6.8-13.3,11.8-18.5c5-5.2,10.9-9.4,17.8-12.4C532.6,1987.2,540,1985.7,548.1,1985.7z
					 M546.5,1991.7c-5.7,0-10.8,1.2-15.2,3.7c-4.4,2.4-8.1,5.9-11.1,10.4c-3,4.5-5.3,9.9-6.9,16.3c-1.6,6.4-2.4,13.6-2.4,21.6
					c0,7.9,0.8,15.2,2.3,21.7c1.5,6.6,3.8,12.2,6.8,17c3,4.7,6.7,8.4,11.2,11c4.5,2.6,9.6,3.9,15.4,3.9c5.2,0,10-1,14.4-3
					c4.4-2,8.3-5.1,11.6-9.2c3.3-4.2,5.9-9.5,7.7-16c1.9-6.5,2.8-14.2,2.8-23.2c0-8.5-0.8-16.1-2.3-22.8c-1.5-6.7-3.8-12.4-6.9-17.1
					c-3.1-4.7-6.9-8.2-11.5-10.6C557.9,1992.9,552.5,1991.7,546.5,1991.7z"/>
				<path d="M643.5,1994.3v44.2h20.4c2.4,0,4.4-0.2,6.1-0.7c1.7-0.5,3.1-1.3,4.3-2.4c1.2-1.2,2.1-2.7,2.7-4.7c0.7-2,1.2-4.5,1.6-7.6
					h3.1v38h-3.1c-0.1-2.8-0.4-5.2-0.9-7.2c-0.5-2-1.3-3.6-2.4-4.9c-1.1-1.3-2.6-2.2-4.5-2.8c-1.9-0.6-4.2-0.9-7-0.9h-20.4v35.3
					c0,2.6,0,4.8,0.1,6.4c0.1,1.7,0.3,3,0.6,4.1c0.3,1.1,0.8,1.9,1.4,2.5c0.6,0.6,1.4,1.2,2.4,1.8c2.3,1.3,4.8,2,7.6,2h4.1v3.1
					h-48.3v-3.1h4c2,0,3.7-0.1,5.3-0.4c1.5-0.3,2.8-1,3.8-2.1c1-1.1,1.8-2.8,2.3-5.1c0.5-2.3,0.8-5.3,0.8-9.2v-72.7
					c0-2.6-0.1-4.7-0.2-6.4c-0.1-1.7-0.3-3.1-0.6-4.1c-0.3-1.1-0.7-1.9-1.3-2.6c-0.6-0.7-1.4-1.2-2.4-1.7c-1.2-0.7-2.5-1.2-3.7-1.5
					c-1.2-0.3-2.6-0.5-4-0.5h-4v-3.1h83.7v24.8h-1.9c-1.1-4-2.3-7.3-3.7-9.7c-1.4-2.4-3-4.3-5-5.6c-1.9-1.3-4.2-2.2-6.9-2.6
					c-2.6-0.4-5.8-0.6-9.5-0.6H643.5z"/>
				<path d="M762.7,1988.1H823v3.2L785.5,2103h-9.3l33.7-101.3h-31c-3.8,0-7,0.3-9.6,1c-2.6,0.7-4.8,1.6-6.7,2.8
					c-1.9,1.2-3.4,2.7-4.7,4.4c-1.3,1.7-2.5,3.7-3.7,5.8l-2.4-0.9L762.7,1988.1z"/>
				<path d="M942.5,2100.7l-43.5-94.6v75.2c0,3.9,0.3,6.9,0.8,9.1c0.5,2.2,1.3,3.8,2.4,4.9c1,1.1,2.3,1.7,3.8,2
					c1.5,0.2,3.2,0.4,5.1,0.4h4v3.1h-39.1v-3.1h4c2,0,3.7-0.1,5.2-0.4c1.5-0.3,2.7-1,3.7-2.1c1-1.1,1.7-2.8,2.2-5
					c0.5-2.2,0.7-5.1,0.7-8.9v-73.5c0-2.6-0.1-5-0.4-7c-0.2-2-0.9-3.7-1.9-5.1c-1-1.4-2.6-2.5-4.7-3.2s-5.1-1.1-8.9-1.1v-3.1h31.8
					l40.9,88l40.1-88h31.8v3.1h-3.8c-2.1,0-3.8,0.2-5.3,0.5c-1.5,0.3-2.7,1.1-3.7,2.2c-1,1.1-1.7,2.8-2.2,5
					c-0.5,2.2-0.7,5.1-0.7,8.9v73.5c0,3.9,0.3,6.9,0.8,9.1c0.5,2.2,1.3,3.8,2.4,4.9c1,1.1,2.3,1.7,3.8,2c1.5,0.2,3.2,0.4,5.1,0.4
					h3.8v3.1h-47.8v-3.1h4c2,0,3.7-0.2,5.2-0.5c1.5-0.3,2.7-1.1,3.8-2.2c1-1.1,1.8-2.7,2.3-4.9c0.5-2.1,0.7-5.1,0.7-8.8v-75.2
					l-43.3,94.6H942.5z"/>
				<path d="M1093.5,2100.7l-43.5-94.6v75.2c0,3.9,0.3,6.9,0.8,9.1c0.5,2.2,1.3,3.8,2.4,4.9c1,1.1,2.3,1.7,3.8,2
					c1.5,0.2,3.2,0.4,5.1,0.4h4v3.1h-39.1v-3.1h4c2,0,3.7-0.1,5.2-0.4c1.5-0.3,2.7-1,3.7-2.1c1-1.1,1.7-2.8,2.2-5
					c0.5-2.2,0.7-5.1,0.7-8.9v-73.5c0-2.6-0.1-5-0.4-7c-0.2-2-0.9-3.7-1.9-5.1c-1-1.4-2.6-2.5-4.7-3.2c-2.1-0.7-5.1-1.1-8.9-1.1
					v-3.1h31.8l40.9,88l40.1-88h31.8v3.1h-3.8c-2.1,0-3.8,0.2-5.3,0.5c-1.5,0.3-2.7,1.1-3.7,2.2c-1,1.1-1.7,2.8-2.2,5
					c-0.5,2.2-0.7,5.1-0.7,8.9v73.5c0,3.9,0.3,6.9,0.8,9.1c0.5,2.2,1.3,3.8,2.4,4.9c1,1.1,2.3,1.7,3.8,2c1.5,0.2,3.2,0.4,5.1,0.4
					h3.8v3.1h-47.8v-3.1h4c2,0,3.7-0.2,5.2-0.5c1.5-0.3,2.7-1.1,3.8-2.2c1-1.1,1.8-2.7,2.3-4.9c0.5-2.1,0.7-5.1,0.7-8.8v-75.2
					l-43.3,94.6H1093.5z"/>
			</g>
			<g>
				<path d="M755.7,2154.3v3.1c-2.2,0-4.1,0.2-5.5,0.6c-1.4,0.4-2.8,1.3-4,2.8c-1.2,1.4-2.5,3.6-3.7,6.4c-1.2,2.8-2.7,6.7-4.3,11.5
					l-31.3,90.8h-3.3l-25.6-71.9l-25.4,71.9h-3.1l-33.4-93.5c-1.2-3.5-2.2-6.2-3-8.2c-0.7-2-1.3-3.4-1.7-4c-1.2-2.1-2.7-3.7-4.5-4.8
					c-1.9-1-4.4-1.5-7.7-1.5v-3.1h41.6v3.1h-2c-2.9,0-5.1,0.7-6.7,2c-1.6,1.3-2.4,2.9-2.4,4.8c0,2,1.2,6.4,3.7,13.4l22.2,63.1
					L674,2187l-5.9-17c-0.9-2.1-1.8-3.9-2.7-5.4c-0.9-1.6-1.9-2.9-3.1-4c-1.2-1.1-2.5-1.9-4.1-2.4c-1.6-0.5-3.5-0.8-5.7-0.8v-3.1
					h43.7v3.1h-3c-3.1,0-5.4,0.7-6.8,2c-1.4,1.3-2.1,3.1-2.1,5.4c0,2.8,1.2,7.7,3.7,14.7l21.5,61.2l21.4-62c1.2-3.5,2.1-6.4,2.7-8.7
					c0.7-2.3,1-4.2,1-5.6c0-2.6-1.2-4.5-3.5-5.5c-2.3-1-5.3-1.5-9-1.5v-3.1H755.7z"/>
				<path d="M809.4,2263.7v3.1h-48.2v-3.1h4c2,0,3.7-0.1,5.3-0.4c1.5-0.3,2.8-1,3.8-2.1c1-1.1,1.8-2.8,2.3-5.1
					c0.5-2.3,0.8-5.3,0.8-9.2v-72.7c0-2.6-0.1-4.7-0.2-6.4c-0.1-1.7-0.3-3.1-0.6-4.1c-0.3-1.1-0.7-1.9-1.3-2.5
					c-0.6-0.6-1.4-1.2-2.4-1.8c-2.5-1.3-5-2-7.7-2h-4v-3.1h48.2v3.1h-4c-2,0-3.7,0.2-5.3,0.5c-1.5,0.3-2.8,1.1-3.8,2.2
					c-1,1.1-1.8,2.8-2.3,5.1c-0.5,2.3-0.8,5.3-0.8,9.1v72.7c0,2.6,0,4.8,0.1,6.4c0.1,1.7,0.3,3,0.6,4.1c0.3,1.1,0.8,1.9,1.4,2.5
					c0.6,0.6,1.4,1.2,2.4,1.8c2.3,1.3,4.8,2,7.6,2H809.4z"/>
				<path d="M912,2154.3v26.5h-1.9c-0.9-7.1-3-12.1-6.3-15c-3.3-2.9-8.1-4.4-14.4-4.4h-15.8v86c0,3.8,0.3,6.8,0.8,9
					c0.5,2.2,1.3,3.8,2.3,4.9c1,1.1,2.2,1.8,3.7,2c1.5,0.3,3.2,0.4,5.2,0.4h3.8v3.1h-47.7v-3.1h4c2,0,3.7-0.2,5.2-0.5
					c1.5-0.3,2.7-1.1,3.7-2.2c1-1.1,1.8-2.7,2.3-4.9c0.5-2.1,0.8-5.1,0.8-8.8v-86h-13.5c-3.4,0-6.4,0.3-9,0.8
					c-2.6,0.5-4.8,1.5-6.7,3c-1.9,1.4-3.4,3.4-4.5,5.9c-1.1,2.5-1.8,5.8-2,9.7h-3.1v-26.5H912z"/>
				<path d="M952.3,2206.5h52.2v-32.2c0-2.6,0-4.8-0.1-6.5c-0.1-1.7-0.3-3.1-0.6-4.1c-0.3-1.1-0.8-1.9-1.4-2.5
					c-0.6-0.6-1.4-1.2-2.4-1.8c-2.3-1.3-4.8-2-7.6-2h-4v-3.1h48.2v3.1h-4c-1.1,0-2.2,0.1-3.4,0.4c-1.2,0.2-2.3,0.6-3.3,1.1
					c-1,0.5-2,1.1-2.8,1.9c-0.8,0.7-1.4,1.6-1.7,2.6c-0.6,1.7-0.9,5.4-0.9,11v72.6c0,2.6,0.1,4.8,0.2,6.4c0.1,1.7,0.3,3,0.6,4.1
					c0.3,1.1,0.7,1.9,1.3,2.5c0.6,0.6,1.4,1.2,2.4,1.8c2.3,1.3,4.9,2,7.7,2h4v3.1h-48.2v-3.1h4c1.9,0,3.6-0.1,5.1-0.4
					c1.5-0.3,2.8-1,3.8-2.1c1.1-1.1,1.9-2.8,2.4-5.1c0.5-2.3,0.8-5.3,0.8-9.2v-34.3h-52.2v34.3c0,2.6,0,4.8,0.1,6.4
					c0.1,1.7,0.3,3,0.6,4.1c0.3,1.1,0.8,1.9,1.4,2.5c0.6,0.6,1.4,1.2,2.4,1.8c2.3,1.3,4.8,2,7.6,2h4.1v3.1h-48.3v-3.1h4.1
					c4.5,0,7.9-1.4,10-4.1c1.3-1.7,2-5.9,2-12.8v-72.6c0-2.7,0-4.9-0.1-6.6c-0.1-1.7-0.3-3.1-0.6-4.1c-0.3-1-0.8-1.9-1.4-2.5
					c-0.6-0.6-1.4-1.2-2.4-1.8c-2.3-1.3-4.8-2-7.6-2h-4.1v-3.1h48.3v3.1h-4.1c-1,0-2.1,0.1-3.3,0.4c-1.2,0.2-2.3,0.6-3.3,1.1
					c-1,0.5-2,1.1-2.8,1.9c-0.8,0.7-1.4,1.6-1.7,2.6c-0.7,2-1,5.7-1,11V2206.5z"/>
			</g>
			<g>
				<path d="M489.9,2433.6l-43.5-94.6v75.2c0,3.9,0.3,6.9,0.8,9.1c0.5,2.2,1.3,3.8,2.4,4.9c1,1.1,2.3,1.7,3.8,2
					c1.5,0.2,3.2,0.4,5.1,0.4h4v3.1h-39.1v-3.1h4c2,0,3.7-0.1,5.2-0.4c1.5-0.3,2.7-1,3.7-2.1c1-1.1,1.7-2.8,2.2-5
					c0.5-2.2,0.7-5.1,0.7-8.9v-73.5c0-2.6-0.1-5-0.4-7c-0.2-2-0.9-3.7-1.9-5.1c-1-1.4-2.6-2.5-4.7-3.2c-2.1-0.7-5.1-1.1-8.9-1.1
					v-3.1h31.8l40.9,88l40.1-88h31.8v3.1h-3.8c-2.1,0-3.8,0.2-5.3,0.5c-1.5,0.3-2.7,1.1-3.7,2.2c-1,1.1-1.7,2.8-2.2,5
					c-0.5,2.2-0.7,5.1-0.7,8.9v73.5c0,3.9,0.3,6.9,0.8,9.1c0.5,2.2,1.3,3.8,2.4,4.9c1,1.1,2.3,1.7,3.8,2c1.5,0.2,3.2,0.4,5.1,0.4
					h3.8v3.1h-47.8v-3.1h4c2,0,3.7-0.2,5.2-0.5c1.5-0.3,2.7-1.1,3.8-2.2c1-1.1,1.8-2.7,2.3-4.9c0.5-2.1,0.7-5.1,0.7-8.8V2339
					l-43.3,94.6H489.9z"/>
				<path d="M649.3,2396h-43.6l-7.7,17.7c-1.8,4.4-2.7,7.6-2.7,9.8c0,0.9,0.1,1.7,0.4,2.5c0.3,0.7,0.9,1.4,1.9,2
					c0.9,0.6,2.3,1.2,4,1.6c1.7,0.5,3.9,0.8,6.7,0.9v3.1h-35.4v-3.1c2.8-0.4,5.1-1,6.8-1.9c1.7-0.8,3.2-2,4.5-3.4
					c1.2-1.4,2.4-3.3,3.4-5.6c1-2.3,2.3-5.2,3.8-8.5l39.6-92.5h2.8l39.1,93.5c1.6,3.9,3,7,4.4,9.3c1.4,2.4,2.8,4.2,4.2,5.5
					c1.4,1.3,3,2.2,4.7,2.7c1.7,0.5,3.7,0.8,6.1,0.9v3.1h-44.4v-3.1c4.5-0.2,7.5-0.9,9.1-2.2c1.6-1.3,2.4-2.8,2.4-4.6
					c-0.1-2.4-1.2-6.3-3.3-11.6L649.3,2396z M646.9,2389.8l-19.1-45.4l-19.6,45.4H646.9z"/>
				<path d="M773.7,2321.1v26.5h-1.9c-0.9-7.1-3-12.1-6.3-15c-3.3-2.9-8.1-4.4-14.4-4.4h-15.8v86c0,3.8,0.3,6.8,0.8,9
					c0.5,2.2,1.3,3.8,2.3,4.9c1,1.1,2.2,1.8,3.7,2c1.5,0.3,3.2,0.4,5.2,0.4h3.8v3.1h-47.7v-3.1h4c2,0,3.7-0.2,5.2-0.5
					c1.5-0.3,2.7-1.1,3.7-2.2c1-1.1,1.8-2.7,2.3-4.9c0.5-2.1,0.8-5.1,0.8-8.8v-86H706c-3.4,0-6.4,0.3-9,0.8c-2.6,0.5-4.8,1.5-6.7,3
					c-1.9,1.4-3.4,3.4-4.5,5.9c-1.1,2.5-1.8,5.8-2,9.7h-3.1v-26.5H773.7z"/>
				<path d="M814.7,2327.3v44.4h24.6c3.6,0,6.6-0.3,8.8-1c2.2-0.7,4-1.7,5.3-3c1.3-1.3,2.2-3,2.7-5.1c0.5-2.1,0.8-4.5,1-7.3h3.1
					v39.1H857c-0.4-3.2-0.9-5.9-1.4-8c-0.5-2.1-1.4-3.9-2.6-5.1c-1.2-1.3-2.9-2.2-5-2.7c-2.1-0.5-5-0.8-8.7-0.8h-24.6v37.1
					c0,2.8,0,5,0.1,6.7c0.1,1.7,0.4,2.9,1,3.8c0.6,0.9,1.5,1.4,2.7,1.7c1.2,0.2,3.1,0.4,5.4,0.4H843c3.2,0,5.9-0.1,8.2-0.2
					c2.2-0.2,4.1-0.5,5.8-1c1.6-0.5,3-1.2,4.3-2c1.2-0.9,2.6-2,4-3.3c3.3-3.2,6.8-8.4,10.5-15.5h3.3l-9.8,28.2h-86.7v-3.1h4
					c1.1,0,2.2-0.1,3.3-0.4c1.2-0.2,2.2-0.6,3.3-1.1c1-0.5,2-1.1,2.8-1.8c0.8-0.7,1.4-1.6,1.7-2.6c0.7-1.8,1-5.4,1-10.9v-73
					c0-7.2-0.7-11.6-2.1-13.2c-2-2.2-5.3-3.3-10-3.3h-4v-3.1h86.7v24.6h-2c-0.8-4-1.7-7.3-2.7-9.7c-0.9-2.4-2.2-4.3-3.8-5.6
					c-1.6-1.3-3.6-2.2-6-2.5c-2.4-0.4-5.6-0.6-9.3-0.6H814.7z"/>
				<path d="M997.7,2433.6h-30l-38.1-52.6c-1.4,0.1-2.7,0.1-3.8,0.2c-1.1,0-2.1,0.1-3,0.1c-0.7,0-1.5,0-2.4-0.1
					c-0.8,0-1.7-0.1-2.6-0.2v32.7c0,4,0.3,7.1,0.8,9.3c0.5,2.3,1.3,4,2.4,5.1c1,1.1,2.3,1.8,3.7,2c1.4,0.2,3.1,0.4,4.9,0.4h4.5v3.1
					h-48.3v-3.1h4.3c4.6,0,8-1.5,10.2-4.6c1.2-1.8,1.7-5.9,1.7-12.3V2341c0-6.9-0.8-11.3-2.4-13.1c-2.1-2.5-5.3-3.7-9.5-3.7h-4.3
					v-3.1h41c6,0,11.2,0.2,15.6,0.7c4.4,0.5,8,1.1,10.8,2c2.8,0.9,5.4,2.2,7.9,3.8c2.5,1.6,4.6,3.5,6.5,5.8c1.9,2.3,3.3,4.8,4.4,7.6
					c1.1,2.8,1.6,5.8,1.6,9c0,7-2.2,13-6.7,18.1c-4.5,5-11.4,8.6-20.9,10.8l23.2,32.2c2.7,3.7,5.1,6.8,7.2,9.2
					c2.1,2.4,4.2,4.3,6.3,5.7c2.1,1.4,4.3,2.4,6.7,3.1c2.4,0.7,5.1,1.2,8.4,1.5V2433.6z M917.8,2375.8c1.1,0,2,0,2.8,0.1
					c0.8,0,1.4,0.1,1.9,0.1c5.4,0,10.1-0.6,14.1-1.9c4-1.2,7.4-3,10.2-5.2c2.7-2.2,4.8-4.8,6.1-7.9c1.4-3,2-6.3,2-9.8
					c0-3.5-0.6-6.7-1.7-9.6c-1.2-2.9-2.8-5.4-5-7.6c-2.1-2.1-4.7-3.7-7.7-4.9c-3-1.2-6.2-1.7-9.8-1.7c-3.4,0-7.7,0.5-13,1.6V2375.8z
					"/>
				<path d="M1048.6,2430.5v3.1h-48.2v-3.1h4c2,0,3.7-0.1,5.3-0.4c1.5-0.3,2.8-1,3.8-2.1c1-1.1,1.8-2.8,2.3-5.1
					c0.5-2.3,0.8-5.3,0.8-9.2V2341c0-2.6-0.1-4.7-0.2-6.4c-0.1-1.7-0.3-3.1-0.6-4.1c-0.3-1.1-0.7-1.9-1.3-2.5
					c-0.6-0.6-1.4-1.2-2.4-1.8c-2.5-1.3-5-2-7.7-2h-4v-3.1h48.2v3.1h-4c-2,0-3.7,0.2-5.3,0.5c-1.5,0.3-2.8,1.1-3.8,2.2
					c-1,1.1-1.8,2.8-2.3,5.1c-0.5,2.3-0.8,5.3-0.8,9.1v72.7c0,2.6,0,4.8,0.1,6.4c0.1,1.7,0.3,3,0.6,4.1c0.3,1.1,0.8,1.9,1.4,2.5
					c0.6,0.6,1.4,1.2,2.4,1.8c2.3,1.3,4.8,2,7.6,2H1048.6z"/>
				<path d="M1130.5,2396h-43.6l-7.7,17.7c-1.8,4.4-2.7,7.6-2.7,9.8c0,0.9,0.1,1.7,0.4,2.5c0.3,0.7,0.9,1.4,1.9,2
					c0.9,0.6,2.3,1.2,4,1.6c1.7,0.5,3.9,0.8,6.7,0.9v3.1h-35.4v-3.1c2.8-0.4,5.1-1,6.8-1.9c1.7-0.8,3.2-2,4.5-3.4
					c1.2-1.4,2.4-3.3,3.4-5.6c1-2.3,2.3-5.2,3.8-8.5l39.6-92.5h2.8l39.1,93.5c1.6,3.9,3,7,4.4,9.3c1.4,2.4,2.8,4.2,4.2,5.5
					c1.4,1.3,3,2.2,4.7,2.7c1.7,0.5,3.7,0.8,6.1,0.9v3.1h-44.4v-3.1c4.5-0.2,7.5-0.9,9.1-2.2c1.6-1.3,2.4-2.8,2.4-4.6
					c-0.1-2.4-1.2-6.3-3.3-11.6L1130.5,2396z M1128.2,2389.8l-19.1-45.4l-19.6,45.4H1128.2z"/>
				<path d="M1272.9,2402.5l2.7,0.5l-9.7,30.6h-87.2v-3.1h4.3c4.6,0,8-1.5,10.2-4.6c1.2-1.8,1.7-5.9,1.7-12.3V2341
					c0-6.9-0.8-11.3-2.4-13.1c-2.1-2.5-5.3-3.7-9.5-3.7h-4.3v-3.1h51v3.1c-3.1,0-5.6,0.1-7.6,0.4c-2,0.3-3.7,0.7-5,1.2
					c-1.3,0.5-2.4,1.2-3.1,1.9c-0.7,0.7-1.4,1.6-1.9,2.5c-0.8,1.7-1.2,5.9-1.2,12.8v70.7c0,3.9,0.3,6.7,0.9,8.4
					c0.6,1.7,1.7,2.9,3.5,3.6c1.5,0.5,5.8,0.7,13,0.7h8.2c8.7,0,14.7-0.6,18.2-1.9c1.7-0.6,3.4-1.4,5-2.5c1.6-1.1,3.1-2.5,4.6-4.2
					c1.5-1.7,2.9-3.8,4.3-6.3C1270,2409.1,1271.4,2406.1,1272.9,2402.5z"/>
			</g>
			<g>
				<path d="M578.1,2486.6v26.5h-1.9c-0.9-7.1-3-12.1-6.3-15c-3.3-2.9-8.1-4.4-14.4-4.4h-15.8v86c0,3.8,0.3,6.8,0.8,9
					c0.5,2.2,1.3,3.8,2.3,4.9c1,1.1,2.2,1.8,3.7,2c1.5,0.3,3.2,0.4,5.2,0.4h3.8v3.1h-47.7v-3.1h4c2,0,3.7-0.2,5.2-0.5
					c1.5-0.3,2.7-1.1,3.7-2.2c1-1.1,1.8-2.7,2.3-4.9c0.5-2.1,0.8-5.1,0.8-8.8v-86h-13.5c-3.4,0-6.4,0.3-9,0.8
					c-2.6,0.5-4.8,1.5-6.7,3c-1.9,1.4-3.4,3.4-4.5,5.9c-1.1,2.5-1.8,5.8-2,9.7H485v-26.5H578.1z"/>
				<path d="M698.3,2599.2h-30l-38.1-52.6c-1.4,0.1-2.7,0.1-3.8,0.2c-1.1,0-2.1,0.1-3,0.1c-0.7,0-1.5,0-2.4-0.1
					c-0.8,0-1.7-0.1-2.6-0.2v32.7c0,4,0.3,7.1,0.8,9.3c0.5,2.3,1.3,4,2.4,5.1c1,1.1,2.3,1.8,3.7,2c1.4,0.2,3.1,0.4,4.9,0.4h4.5v3.1
					h-48.3v-3.1h4.3c4.6,0,8-1.5,10.2-4.6c1.2-1.8,1.7-5.9,1.7-12.3v-72.7c0-6.9-0.8-11.3-2.4-13.1c-2.1-2.5-5.3-3.7-9.5-3.7h-4.3
					v-3.1h41c6,0,11.2,0.2,15.6,0.7c4.4,0.5,8,1.1,10.8,2c2.8,0.9,5.4,2.2,7.9,3.8c2.5,1.6,4.6,3.5,6.5,5.8c1.9,2.3,3.3,4.8,4.4,7.6
					c1.1,2.8,1.6,5.8,1.6,9c0,7-2.2,13-6.7,18.1c-4.5,5-11.4,8.6-20.9,10.8l23.2,32.2c2.7,3.7,5.1,6.8,7.2,9.2
					c2.1,2.4,4.2,4.3,6.3,5.7c2.1,1.4,4.3,2.4,6.7,3.1c2.4,0.7,5.1,1.2,8.4,1.5V2599.2z M618.5,2541.4c1.1,0,2,0,2.8,0.1
					c0.8,0,1.4,0.1,1.9,0.1c5.4,0,10.1-0.6,14.1-1.9c4-1.2,7.4-3,10.2-5.2c2.7-2.2,4.8-4.8,6.1-7.9c1.4-3,2-6.3,2-9.8
					c0-3.5-0.6-6.7-1.7-9.6c-1.2-2.9-2.8-5.4-5-7.6c-2.1-2.1-4.7-3.7-7.7-4.9c-3-1.2-6.2-1.7-9.8-1.7c-3.4,0-7.7,0.5-13,1.6V2541.4z
					"/>
				<path d="M749.2,2596.1v3.1H701v-3.1h4c2,0,3.7-0.1,5.3-0.4c1.5-0.3,2.8-1,3.8-2.1c1-1.1,1.8-2.8,2.3-5.1
					c0.5-2.3,0.8-5.3,0.8-9.2v-72.7c0-2.6-0.1-4.7-0.2-6.4c-0.1-1.7-0.3-3.1-0.6-4.1c-0.3-1.1-0.7-1.9-1.3-2.5
					c-0.6-0.6-1.4-1.2-2.4-1.8c-2.5-1.3-5-2-7.7-2h-4v-3.1h48.2v3.1h-4c-2,0-3.7,0.2-5.3,0.5c-1.5,0.3-2.8,1.1-3.8,2.2
					c-1,1.1-1.8,2.8-2.3,5.1c-0.5,2.3-0.8,5.3-0.8,9.1v72.7c0,2.6,0,4.8,0.1,6.4c0.1,1.7,0.3,3,0.6,4.1c0.3,1.1,0.8,1.9,1.4,2.5
					c0.6,0.6,1.4,1.2,2.4,1.8c2.3,1.3,4.8,2,7.6,2H749.2z"/>
				<path d="M788.2,2546.6v32.7c0,7.2,0.8,11.6,2.4,13.2c2.1,2.4,5.3,3.6,9.5,3.6h4.3v3.1h-48.2v-3.1h4.2c4.7,0,8.1-1.5,10.2-4.6
					c1.2-1.8,1.7-5.9,1.7-12.3v-72.7c0-7-0.7-11.4-2.2-13.1c-2.2-2.5-5.4-3.7-9.7-3.7h-4.2v-3.1h41.2c9.9,0,17.8,1.1,23.8,3.2
					c2.9,1,5.6,2.4,8.1,4.1c2.5,1.8,4.7,3.9,6.6,6.3c1.9,2.4,3.3,5.1,4.4,8c1.1,2.9,1.6,6.1,1.6,9.5c0,4.5-0.8,8.7-2.4,12.5
					c-1.6,3.8-3.8,7.1-6.8,9.8c-3,2.7-6.6,4.8-10.9,6.4c-4.3,1.5-9.2,2.3-14.7,2.3C801.8,2548.8,795.5,2548,788.2,2546.6z
					 M788.2,2541.7c3,0.6,5.6,1,7.8,1.3c2.2,0.3,4.2,0.4,5.8,0.4c2.9,0,5.6-0.6,8.2-1.8c2.6-1.2,4.8-2.8,6.7-5
					c1.9-2.1,3.5-4.6,4.6-7.6c1.1-3,1.7-6.2,1.7-9.7c0-4.1-0.6-7.8-1.9-11c-1.2-3.2-2.9-5.9-5.1-8.2c-2.1-2.2-4.7-3.9-7.6-5.1
					c-2.9-1.2-6-1.7-9.4-1.7c-2.8,0-6.4,0.5-10.9,1.5V2541.7z"/>
				<path d="M945.3,2568.1l2.7,0.5l-9.7,30.6h-87.2v-3.1h4.3c4.6,0,8-1.5,10.2-4.6c1.2-1.8,1.7-5.9,1.7-12.3v-72.7
					c0-6.9-0.8-11.3-2.4-13.1c-2.1-2.5-5.3-3.7-9.5-3.7h-4.3v-3.1h51v3.1c-3.1,0-5.6,0.1-7.6,0.4c-2,0.3-3.7,0.7-5,1.2
					c-1.3,0.5-2.4,1.2-3.1,1.9c-0.7,0.7-1.4,1.6-1.9,2.5c-0.8,1.7-1.2,5.9-1.2,12.8v70.7c0,3.9,0.3,6.7,0.9,8.4
					c0.6,1.7,1.7,2.9,3.5,3.6c1.5,0.5,5.8,0.7,13,0.7h8.2c8.7,0,14.7-0.6,18.2-1.9c1.7-0.6,3.4-1.4,5-2.5c1.6-1.1,3.1-2.5,4.6-4.2
					c1.5-1.7,2.9-3.8,4.3-6.3C942.4,2574.7,943.8,2571.7,945.3,2568.1z"/>
				<path d="M987.2,2492.8v44.4h24.6c3.6,0,6.6-0.3,8.8-1c2.2-0.7,4-1.6,5.3-3c1.3-1.3,2.2-3,2.7-5.1c0.5-2.1,0.8-4.5,1-7.3h3.1
					v39.1h-3.1c-0.4-3.2-0.9-5.9-1.4-8c-0.5-2.1-1.4-3.9-2.6-5.1c-1.2-1.3-2.9-2.2-5-2.7c-2.1-0.5-5-0.8-8.7-0.8h-24.6v37.1
					c0,2.8,0,5,0.1,6.7c0.1,1.7,0.4,2.9,1,3.8c0.6,0.9,1.5,1.4,2.7,1.7c1.2,0.2,3.1,0.4,5.4,0.4h19.1c3.2,0,5.9-0.1,8.2-0.2
					c2.2-0.2,4.1-0.5,5.8-1c1.6-0.5,3-1.2,4.3-2c1.2-0.9,2.6-2,4-3.3c3.3-3.2,6.8-8.4,10.5-15.5h3.3l-9.8,28.2h-86.7v-3.1h4
					c1.1,0,2.2-0.1,3.3-0.4c1.2-0.2,2.2-0.6,3.3-1.1c1-0.5,2-1.1,2.8-1.8c0.8-0.7,1.4-1.6,1.7-2.6c0.7-1.8,1-5.4,1-10.9v-73
					c0-7.2-0.7-11.6-2.1-13.2c-2-2.2-5.3-3.3-10-3.3h-4v-3.1h86.7v24.6h-2c-0.8-4-1.7-7.3-2.7-9.7c-0.9-2.4-2.2-4.3-3.8-5.6
					c-1.6-1.3-3.6-2.2-6-2.5c-2.4-0.4-5.6-0.6-9.3-0.6H987.2z"/>
				<path d="M1124.7,2536.9l24.1,36c3.5,5.1,6.3,9.2,8.6,12.2c2.3,3,4.4,5.3,6.3,6.9c1.9,1.6,3.8,2.6,5.7,3.2
					c1.9,0.5,4.1,0.8,6.6,0.9v3.1h-48.3v-3.1c4.5-0.1,7.5-0.8,9-2.1c1.4-1.3,2.2-3.2,2.2-5.6c0-0.4,0-0.8-0.1-1.2
					c-0.1-0.4-0.3-0.9-0.7-1.6c-0.4-0.7-0.9-1.6-1.7-2.7c-0.7-1.1-1.7-2.5-2.8-4.3l-19.1-28.8l-23.6,30.2c-1.3,1.7-2.3,3-3,4
					c-0.7,1-1.2,1.8-1.5,2.5c-0.3,0.7-0.5,1.2-0.6,1.7c0,0.5-0.1,1-0.1,1.6c0,1.7,0.7,3.2,2.2,4.3c1.5,1.2,4.3,1.8,8.5,2v3.1h-39.9
					v-3.1c2.7-0.2,5.3-0.7,7.7-1.6c2.4-0.9,4.7-2.1,6.9-3.7c2.2-1.5,4.4-3.4,6.5-5.7c2.1-2.3,4.4-4.8,6.7-7.7l26.5-33.6l-22.2-32.4
					c-3.1-4.5-5.8-8.1-8.2-10.8c-2.4-2.8-4.8-4.9-7.1-6.4c-2.3-1.5-4.6-2.6-6.9-3.2s-4.9-1-7.7-1.2v-3.1h52v3.1
					c-4.4,0.2-7.4,0.9-9,2.2c-1.7,1.3-2.5,2.7-2.5,4.3c0,2.1,1.3,5,4,8.9l17.3,25.9l19.9-25.4c1.2-1.6,2.2-2.8,2.8-3.8
					c0.7-0.9,1.2-1.7,1.5-2.4c0.3-0.6,0.5-1.2,0.6-1.7c0.1-0.5,0.1-1.1,0.1-1.7c0-2.4-0.9-4-2.7-4.8c-1.8-0.8-4.9-1.3-9.3-1.5v-3.1
					h39.9v3.1c-3.8,0.2-6.9,1-9.2,2.1c-2.4,1.2-4.6,2.7-6.7,4.6c-2.3,2-5.8,5.9-10.5,11.9L1124.7,2536.9z"/>
			</g>
			<g>
				<g>
					<polygon class="st1" points="2214.7,2441.8 2152.4,2462.9 2211.3,2488.3 					"/>
					<polygon class="st1" points="8299.1,2508.5 8360.5,2484.9 8300.6,2461.9 					"/>
					<line class="st2" x1="2200.3" y1="2463.9" x2="8332.3" y2="2484.6"/>
					<g>
						<path d="M5154.6,2581.7l22.9-11.3h2.8v80.3c0,2.8,0,5,0.1,6.5c0.1,1.6,0.2,2.8,0.5,3.6c0.3,0.8,0.6,1.4,1,1.8
							c0.4,0.4,1,0.7,1.8,1c1.4,0.8,4.2,1.2,8.6,1.2v2.6h-36v-2.6c2.3,0,4.1-0.1,5.5-0.3c1.4-0.2,2.4-0.5,3.2-0.8
							c0.8-0.3,1.3-0.7,1.7-1.2c0.4-0.5,0.7-1,0.9-1.6c0.5-1,0.7-4.5,0.7-10.3v-51.4c0-4-0.1-7.2-0.3-9.6c-0.2-2.3-0.5-4.1-0.9-5.2
							c-0.4-1.1-1-1.8-1.7-2.1c-0.7-0.3-1.6-0.5-2.7-0.5c-1.9,0-4.3,0.6-7.1,1.9L5154.6,2581.7z"/>
						<path d="M5272.1,2571.4l-5.6,12h-28.7l-6.3,12.8c5.7,0.8,10.9,2.3,15.7,4.5c4.8,2.1,8.9,4.8,12.4,7.9
							c3.4,3.2,6.1,6.8,8.1,10.9c1.9,4.1,2.9,8.5,2.9,13.2c0,5.8-1.2,11-3.7,15.4c-2.5,4.5-5.6,8.2-9.3,11.3
							c-3.8,3.1-7.8,5.4-12.3,6.9c-4.4,1.6-8.6,2.4-12.5,2.4c-2.9,0-5.5-0.3-7.5-0.8c-2.1-0.5-3.8-1.2-5.1-2.2
							c-1.3-0.9-2.3-1.9-2.9-3c-0.6-1.1-0.9-2.2-0.9-3.4c0-1.3,0.5-2.5,1.6-3.5c1.1-1,2.4-1.5,4.1-1.5c0.6,0,1.2,0,1.7,0.1
							c0.5,0.1,1,0.2,1.5,0.5s1.2,0.6,1.9,1.1c0.7,0.5,1.7,1.1,2.8,1.8c1.8,1.3,3.5,2.2,5.3,2.8c1.8,0.6,3.6,0.9,5.4,0.9
							c2.7,0,5.4-0.6,7.8-1.7c2.5-1.1,4.7-2.6,6.6-4.6c1.9-1.9,3.4-4.2,4.6-6.8c1.2-2.6,1.7-5.4,1.7-8.4c0-2.9-0.5-5.7-1.5-8.4
							c-1-2.7-2.4-5.3-4.2-7.7c-1.8-2.4-4-4.6-6.6-6.6c-2.6-2-5.5-3.6-8.7-5.1c-2.6-1.1-5.6-1.9-9.1-2.5c-3.5-0.5-7.4-0.9-11.8-1.1
							l18.3-37.3H5272.1z"/>
						<path d="M5294.1,2571.4h53.1v3.2l-31.9,94.8h-7.9l28.6-86h-27.7c-3.3,0-6.2,0.3-8.5,0.9c-2.3,0.6-4.3,1.4-5.9,2.5
							c-1.6,1.1-3,2.3-4.1,3.9c-1.1,1.5-2.2,3.2-3.2,5.1l-2.1-0.8L5294.1,2571.4z"/>
						<path d="M5475.9,2569.4l2.2,32h-2.2c-2.9-9.6-7-16.5-12.3-20.7c-5.3-4.2-11.7-6.3-19.1-6.3c-4.8,0-9.3,0.9-13.4,2.7
							c-4.1,1.8-7.6,4.6-10.5,8.4c-2.9,3.8-5.2,8.6-6.9,14.3c-1.7,5.7-2.5,12.5-2.5,20.3c0,6.3,0.8,12,2.3,17.1
							c1.6,5.1,3.8,9.5,6.8,13.1c3,3.6,6.7,6.4,11,8.4c4.3,2,9.4,3,15,3c5.9,0,11.3-1.3,16.2-3.9c4.6-2.4,9.8-7.6,15.4-15.5l2.2,1.3
							c-4.8,8.4-10.3,14.5-16.5,18.4c-6.2,3.9-13.7,5.9-22.4,5.9c-6.7,0-12.8-1.2-18.4-3.5c-5.6-2.3-10.4-5.6-14.4-9.9
							c-4-4.2-7.2-9.3-9.5-15.1c-2.3-5.8-3.4-12.2-3.4-19.2c0-9.5,2.1-18.1,6.3-25.9c4.1-7.9,9.9-13.9,17.3-18.2
							c7.5-4.3,15.5-6.5,24.2-6.5c6.8,0,13.5,1.7,20.1,5c1.9,1,3.3,1.6,4.1,1.6c1.5,0,2.8-0.6,3.8-1.9c1-1.2,1.7-2.8,2.1-4.7H5475.9
							z"/>
						<path d="M5509.3,2615.1c2.4-2.4,4.2-4.2,5.6-5.6c1.4-1.3,2.3-2.2,2.7-2.5c2.1-1.8,4.4-3.2,6.8-4.2c2.4-1,4.9-1.5,7.2-1.5
							c4.1,0,7.5,1.2,10.4,3.5c2.9,2.3,4.8,5.8,5.8,10.2c2.4-2.8,4.6-5.1,6.6-6.9c2-1.8,3.9-3.2,5.7-4.2c1.8-1,3.5-1.7,5.1-2
							c1.6-0.4,3.3-0.6,5.1-0.6c2.4,0,4.6,0.4,6.7,1.2c2.1,0.8,3.9,2.1,5.4,4c1.5,1.9,2.7,4.3,3.6,7.4c0.9,3.1,1.3,6.9,1.3,11.5
							v26.9c0,2.2,0.1,4.1,0.2,5.7c0.1,1.6,0.5,2.9,1.1,3.9c0.7,1,1.6,1.8,3,2.2c1.3,0.5,3.2,0.7,5.7,0.7v2.5h-32v-3h2
							c1.7,0,3.1-0.1,4.3-0.4c1.2-0.3,2.1-0.8,2.8-1.7c0.7-0.8,1.2-2,1.5-3.6c0.3-1.6,0.5-3.7,0.5-6.4v-27.7c0-3.1-0.2-5.6-0.7-7.6
							c-0.5-2-1.2-3.6-2.1-4.8c-0.9-1.2-2-2-3.3-2.5c-1.3-0.5-2.8-0.7-4.5-0.7c-1.2,0-2.5,0.1-3.6,0.4c-1.2,0.2-2.4,0.7-3.7,1.4
							c-1.3,0.7-2.7,1.6-4.2,2.7c-1.5,1.1-3.1,2.8-4.9,5.1v34.2c0,2.3,0,4.1,0.1,5.4c0.1,1.3,0.2,2.3,0.5,2.9c0.3,0.7,0.6,1.2,1,1.5
							c0.4,0.4,1,0.7,1.7,1.2c1.3,0.7,3.5,1.1,6.7,1.1v2.5h-33v-2.5c2.6,0,4.7-0.2,6.2-0.5c1.5-0.4,2.6-1,3.3-1.9
							c0.7-0.9,1.1-2.2,1.3-3.7c0.1-1.6,0.2-3.6,0.2-5.9v-27.8c0-3.1-0.3-5.6-0.8-7.6c-0.5-2-1.3-3.7-2.3-4.9
							c-1-1.2-2.2-2.1-3.5-2.7c-1.4-0.5-2.9-0.8-4.5-0.8c-1.6,0-3.3,0.3-4.9,0.9c-1.6,0.6-3.2,1.3-4.7,2.2c-1.5,0.9-2.9,1.9-4.2,2.9
							c-1.3,1.1-2.3,2.1-3.1,3.1v34.8c0,2.2,0.1,3.9,0.2,5.3c0.1,1.3,0.4,2.4,0.7,3.2c0.3,0.8,0.7,1.3,1.2,1.7c0.5,0.4,1,0.7,1.6,1
							c1.2,0.6,3.6,0.9,7.4,0.9v2.5h-32v-2.5c2.2,0,4-0.2,5.3-0.5c1.3-0.3,2.3-0.9,3-1.8c0.7-0.9,1.2-2.1,1.4-3.7
							c0.2-1.5,0.3-3.6,0.3-6.1v-24.4c0-4.2-0.1-7.4-0.2-9.8c-0.1-2.4-0.4-4.1-0.8-5.3c-0.4-1.2-0.9-1.9-1.6-2.2
							c-0.7-0.3-1.5-0.4-2.6-0.4c-0.6,0-1.3,0.1-2.1,0.3c-0.8,0.2-1.7,0.4-2.7,0.8l-1.1-2.5l19.7-7.8h2.4V2615.1z"/>
					</g>
				</g>
				<g>
					<polygon class="st1" points="8592.2,638 8567.2,577.1 8545.6,637.5 					"/>
					<polygon class="st1" points="8529.8,2341.1 8553,2402.6 8576.3,2342.8 					"/>
					<line class="st2" x1="8570.1" y1="589.3" x2="8553.3" y2="2391.2"/>
					<g>
						<path d="M8685.1,1517.9l-0.1,10l-13-0.1l-0.2,25l-12-0.1l0.2-25l-40-0.4l0.1-9l44.8-62.6l7.8,0.1l-0.6,62L8685.1,1517.9z
							 M8660.1,1517.7l0.4-47.4l-34,47.1L8660.1,1517.7z"/>
						<path d="M8702.5,1458l53.1,0.5l0,3.3l-32.4,93.4l-7.8-0.1l29.1-84.7l-27.8-0.3c-3.3,0-6.2,0.2-8.5,0.8
							c-2.3,0.6-4.3,1.4-5.9,2.4c-1.6,1-3,2.3-4.2,3.8c-1.1,1.5-2.2,3.2-3.3,5.1l-2.1-0.8L8702.5,1458z"/>
						<path d="M8884.7,1457.7l1.9,32l-2.2,0c-2.8-9.6-6.8-16.6-12.1-20.8c-5.2-4.3-11.6-6.4-19-6.5c-4.8,0-9.3,0.8-13.4,2.6
							c-4.1,1.8-7.6,4.6-10.6,8.3c-3,3.8-5.3,8.5-7,14.2c-1.7,5.7-2.6,12.5-2.7,20.3c-0.1,6.3,0.7,12,2.2,17.1
							c1.5,5.1,3.7,9.5,6.7,13.2c3,3.7,6.6,6.5,11,8.5c4.3,2,9.3,3,15,3.1c5.9,0.1,11.3-1.2,16.2-3.8c4.6-2.4,9.8-7.5,15.6-15.4
							l2.2,1.4c-4.8,8.3-10.4,14.4-16.7,18.2c-6.3,3.8-13.8,5.7-22.5,5.6c-6.7-0.1-12.8-1.3-18.4-3.7s-10.4-5.7-14.4-10
							c-4-4.3-7.1-9.4-9.3-15.2c-2.2-5.9-3.3-12.3-3.2-19.2c0.1-9.5,2.3-18.1,6.6-25.8c4.2-7.8,10-13.9,17.5-18.1
							c7.5-4.3,15.6-6.4,24.3-6.3c6.8,0.1,13.5,1.8,20,5.2c1.9,1.1,3.3,1.6,4.1,1.6c1.5,0,2.8-0.6,3.8-1.8c1-1.2,1.7-2.8,2.2-4.6
							L8884.7,1457.7z"/>
						<path d="M8918.2,1502.8c2.4-2.4,4.3-4.2,5.7-5.5c1.4-1.3,2.3-2.1,2.7-2.5c2.1-1.8,4.4-3.2,6.9-4.1c2.5-1,4.9-1.4,7.2-1.4
							c4.1,0,7.5,1.2,10.4,3.6c2.9,2.4,4.8,5.8,5.7,10.3c2.4-2.8,4.6-5.1,6.6-6.9s3.9-3.2,5.7-4.2c1.8-1,3.5-1.6,5.2-2
							c1.6-0.4,3.3-0.5,5.1-0.5c2.4,0,4.6,0.4,6.6,1.3c2.1,0.8,3.8,2.2,5.4,4c1.5,1.9,2.7,4.4,3.5,7.4c0.8,3.1,1.2,6.9,1.2,11.5
							l-0.3,27.5c0,2.2,0,4.1,0.1,5.7c0.1,1.6,0.5,2.9,1.1,3.9c0.6,1,1.6,1.8,3,2.3c1.3,0.5,3.2,0.7,5.7,0.8l0,2.9l-32-0.3l0-3l1,0
							c1.7,0,3.1-0.1,4.3-0.4c1.2-0.3,2.1-0.8,2.8-1.7c0.7-0.8,1.2-2,1.5-3.6c0.3-1.6,0.5-3.7,0.5-6.4l0.3-27.7
							c0-3.1-0.2-5.6-0.7-7.6c-0.5-2-1.1-3.6-2-4.8c-0.9-1.2-2-2-3.3-2.5c-1.3-0.5-2.8-0.7-4.5-0.7c-1.2,0-2.5,0.1-3.6,0.3
							c-1.2,0.2-2.4,0.7-3.7,1.3c-1.3,0.7-2.7,1.5-4.2,2.6c-1.5,1.1-3.2,2.8-5,5.1l-0.3,33.2c0,2.3,0,4.1,0.1,5.4
							c0.1,1.3,0.2,2.3,0.5,2.9c0.3,0.7,0.6,1.2,1,1.5c0.4,0.4,1,0.7,1.7,1.2c1.3,0.7,3.5,1.1,6.7,1.1l0,2.5l-33-0.3l0-2.5
							c2.6,0,4.7-0.1,6.2-0.5c1.5-0.3,2.6-1,3.3-1.9c0.7-0.9,1.1-2.1,1.3-3.7c0.2-1.6,0.3-3.6,0.3-5.9l0.3-27.2
							c0-3.1-0.2-5.6-0.7-7.6c-0.5-2-1.3-3.7-2.3-4.9c-1-1.3-2.2-2.2-3.5-2.7c-1.3-0.5-2.8-0.8-4.5-0.8c-1.6,0-3.3,0.3-4.9,0.8
							c-1.6,0.6-3.2,1.3-4.7,2.1c-1.5,0.9-2.9,1.8-4.2,2.9c-1.3,1.1-2.3,2.1-3.1,3.1l-0.3,34.1c0,2.2,0,3.9,0.2,5.3
							c0.1,1.3,0.3,2.4,0.6,3.2c0.3,0.8,0.7,1.4,1.1,1.7c0.5,0.4,1,0.7,1.6,1c1.2,0.6,3.6,1,7.4,1l0,2.5l-32-0.3l0-2.5
							c2.2,0,4-0.1,5.3-0.4c1.3-0.3,2.3-0.9,3-1.8c0.7-0.9,1.2-2.1,1.4-3.6c0.2-1.5,0.4-3.5,0.4-6.1l0.2-24.4c0-4.2,0-7.4-0.1-9.8
							c-0.1-2.4-0.4-4.1-0.7-5.3c-0.4-1.2-0.9-1.9-1.6-2.2c-0.7-0.3-1.5-0.4-2.6-0.4c-0.6,0-1.3,0.1-2.1,0.2
							c-0.8,0.2-1.7,0.4-2.7,0.8l-1-2.5l19.8-7.6l3.4,0L8918.2,1502.8z"/>
					</g>
				</g>
			</g>
		</g>
		<g id="SELECTOR-TRIPLEX-SUB">
			<circle class="st3" cx="872.5" cy="890.6" r="737.1"/>
			<ellipse class="st4" cx="876" cy="890.2" rx="744.7" ry="739"/>
			<line class="st5" x1="222.7" y1="568.5" x2="1529.2" y2="568.5"/>
			<line class="st5" x1="1435.9" y1="1372.4" x2="316.9" y2="1372.2"/>
			<line class="st6" x1="621.2" y1="619.3" x2="621.2" y2="1321.6"/>
			<line class="st7" x1="724.9" y1="619.3" x2="517.5" y2="619.3"/>
			<line class="st7" x1="724.9" y1="1321.3" x2="517.5" y2="1321.3"/>
			<g>
				<path d="M784,864.9h101.6v5.4l-63.2,188.2h-15.7l56.8-170.7h-52.2c-6.4,0-11.8,0.6-16.2,1.7c-4.4,1.1-8.1,2.7-11.3,4.7
					c-3.1,2-5.8,4.5-7.9,7.4c-2.2,2.9-4.2,6.2-6.2,9.8l-4-1.5L784,864.9z"/>
				<path d="M1087,1054.5l-73.2-159.4v126.7c0,6.5,0.5,11.7,1.4,15.3c0.9,3.7,2.2,6.4,4,8.2c1.7,1.8,3.9,2.9,6.4,3.3
					c2.5,0.4,5.4,0.6,8.6,0.6h6.7v5.2h-65.9v-5.2h6.7c3.3,0,6.3-0.2,8.8-0.7c2.5-0.5,4.6-1.7,6.3-3.5c1.7-1.9,2.9-4.7,3.8-8.3
					c0.8-3.7,1.3-8.7,1.3-14.9v-124c0-4.5-0.2-8.4-0.6-11.8c-0.4-3.4-1.5-6.3-3.2-8.7c-1.7-2.4-4.4-4.2-7.9-5.4
					c-3.5-1.3-8.5-1.9-14.9-1.9v-5.2h53.6l68.9,148.4l67.6-148.4h53.6v5.2h-6.5c-3.5,0-6.5,0.3-9,0.8c-2.5,0.6-4.6,1.8-6.3,3.7
					c-1.7,1.9-2.9,4.7-3.8,8.3c-0.8,3.7-1.3,8.7-1.3,14.9v124c0,6.5,0.5,11.7,1.4,15.3c0.9,3.7,2.2,6.4,4,8.2
					c1.7,1.8,3.9,2.9,6.4,3.3c2.5,0.4,5.4,0.6,8.6,0.6h6.5v5.2h-80.5v-5.2h6.7c3.3,0,6.3-0.3,8.8-0.8c2.5-0.6,4.6-1.8,6.4-3.7
					c1.7-1.9,3-4.6,3.9-8.2c0.8-3.6,1.3-8.6,1.3-14.8V895.1l-73,159.4H1087z"/>
				<path d="M1341.6,1054.5l-73.2-159.4v126.7c0,6.5,0.5,11.7,1.4,15.3c0.9,3.7,2.2,6.4,4,8.2c1.7,1.8,3.9,2.9,6.4,3.3
					c2.5,0.4,5.4,0.6,8.6,0.6h6.7v5.2h-65.9v-5.2h6.7c3.3,0,6.3-0.2,8.8-0.7c2.5-0.5,4.6-1.7,6.3-3.5c1.7-1.9,2.9-4.7,3.8-8.3
					c0.8-3.7,1.3-8.7,1.3-14.9v-124c0-4.5-0.2-8.4-0.6-11.8c-0.4-3.4-1.5-6.3-3.2-8.7c-1.7-2.4-4.4-4.2-7.9-5.4
					c-3.5-1.3-8.5-1.9-14.9-1.9v-5.2h53.6l68.9,148.4l67.6-148.4h53.6v5.2h-6.5c-3.5,0-6.5,0.3-9,0.8c-2.5,0.6-4.6,1.8-6.3,3.7
					c-1.7,1.9-2.9,4.7-3.8,8.3c-0.8,3.7-1.3,8.7-1.3,14.9v124c0,6.5,0.5,11.7,1.4,15.3c0.9,3.7,2.2,6.4,4,8.2
					c1.7,1.8,3.9,2.9,6.4,3.3c2.5,0.4,5.4,0.6,8.6,0.6h6.5v5.2h-80.5v-5.2h6.7c3.3,0,6.3-0.3,8.8-0.8c2.5-0.6,4.6-1.8,6.4-3.7
					c1.7-1.9,3-4.6,3.9-8.2c0.8-3.6,1.3-8.6,1.3-14.8V895.1l-73,159.4H1341.6z"/>
			</g>
			<circle class="st8" cx="870.4" cy="887.8" r="737.1"/>
		</g>
		<circle cx="307.2" cy="1869.7" r="28.5"/>
		<line class="st2" x1="1506.7" y1="513.7" x2="2392.7" y2="513.7"/>
		<circle cx="2400.4" cy="514" r="26.1"/>
	</g>
	<g id="PARTES-1-8">
	</g>
	<g id="PARTES-1-5">
	</g>
</g>
<g id="MEDIDAS">
</g>
<g id="ELEMENTOS-ADC">
</g>
<g id="TEXTO">
</g>
<g id="SELECTOR-MADERAS">
	<g id="SELECTOR-ELEMENTOS-MADERA">
	</g>
	<g id="SELECTOR-PUERTAS">
	</g>
	<g id="SELECTOR-TRIPLEX">
	</g>
</g>
</svg>
